<?xml version="1.0" encoding="utf-8"?>
<!-- Generator: Adobe Illustrator 28.0.0, SVG Export Plug-In . SVG Version: 6.00 Build 0)  -->
<svg version="1.1" xmlns="http://www.w3.org/2000/svg" xmlns:xlink="http://www.w3.org/1999/xlink" x="0px" y="0px"
	 viewBox="0 0 500 500" style="enable-background:new 0 0 500 500;" xml:space="preserve">
<style type="text/css">
	.st0{fill:none;stroke:#A5A5A5;stroke-width:2.5;stroke-linecap:round;stroke-linejoin:round;stroke-miterlimit:10;}
	.st1{fill:none;stroke:#9ABAE3;stroke-width:2.5;stroke-linecap:round;stroke-linejoin:round;stroke-miterlimit:10;}
	.st2{fill:#9ABAE3;}
	.st3{fill:#021D3E;}
	.st4{fill:#FFFFFF;}
	.st5{fill:#021D3E;stroke:#A5A5A5;stroke-width:2.5;stroke-linecap:round;stroke-linejoin:round;stroke-miterlimit:10;}
	.st6{fill:#A5A5A5;}
	.st7{fill:#FCD8C3;}
	.st8{fill:#A5A5A5;stroke:#A5A5A5;stroke-width:2.5;stroke-linecap:round;stroke-linejoin:round;stroke-miterlimit:10;}
	.st9{fill:#FCD8C3;stroke:#A5A5A5;stroke-width:2.5;stroke-linecap:round;stroke-linejoin:round;stroke-miterlimit:10;}
	.st10{fill:#FFFFFF;stroke:#A5A5A5;stroke-width:2.5;stroke-linecap:round;stroke-linejoin:round;stroke-miterlimit:10;}
</style>
<g id="Table">
	<line class="st0" x1="57.4" y1="465.7" x2="442.6" y2="465.7"/>
</g>
<g id="Measures_wall">
	<g>
		<line class="st1" x1="68.3" y1="410.1" x2="459.9" y2="410.1"/>
		<g>
			<line class="st1" x1="74.9" y1="443.5" x2="453.3" y2="443.5"/>
			<line class="st1" x1="74.9" y1="427.3" x2="453.3" y2="427.3"/>
		</g>
		<g>
			<line class="st1" x1="74.9" y1="393" x2="453.3" y2="393"/>
			<line class="st1" x1="74.9" y1="376.8" x2="453.3" y2="376.8"/>
		</g>
		<g>
			<line class="st1" x1="74.9" y1="342.4" x2="453.3" y2="342.4"/>
			<line class="st1" x1="74.9" y1="326.2" x2="453.3" y2="326.2"/>
		</g>
		<g>
			<line class="st1" x1="74.9" y1="291.9" x2="453.3" y2="291.9"/>
			<line class="st1" x1="74.9" y1="275.7" x2="453.3" y2="275.7"/>
		</g>
		<g>
			<line class="st1" x1="74.9" y1="241.3" x2="453.3" y2="241.3"/>
			<line class="st1" x1="74.9" y1="225.1" x2="453.3" y2="225.1"/>
		</g>
		<g>
			<line class="st1" x1="74.9" y1="190.8" x2="453.3" y2="190.8"/>
			<line class="st1" x1="74.9" y1="174.6" x2="453.3" y2="174.6"/>
		</g>
		<g>
			<line class="st1" x1="74.9" y1="140.2" x2="453.3" y2="140.2"/>
			<line class="st1" x1="74.9" y1="124" x2="453.3" y2="124"/>
		</g>
		<g>
			<line class="st1" x1="74.9" y1="89.7" x2="453.3" y2="89.7"/>
			<line class="st1" x1="74.9" y1="73.5" x2="453.3" y2="73.5"/>
		</g>
		<line class="st1" x1="68.3" y1="359.6" x2="459.9" y2="359.6"/>
		<line class="st1" x1="68.3" y1="309.1" x2="459.9" y2="309.1"/>
		<line class="st1" x1="68.3" y1="258.5" x2="459.9" y2="258.5"/>
		<line class="st1" x1="68.3" y1="208" x2="459.9" y2="208"/>
		<line class="st1" x1="68.3" y1="157.4" x2="459.9" y2="157.4"/>
		<line class="st1" x1="68.3" y1="106.9" x2="459.9" y2="106.9"/>
		<line class="st1" x1="68.3" y1="56.3" x2="459.9" y2="56.3"/>
		<g>
			<path class="st2" d="M48.3,52.8c0,0.5-0.1,1-0.3,1.5c-0.2,0.5-0.5,0.8-0.8,1.2c-0.4,0.3-0.8,0.6-1.2,0.8c-0.5,0.2-1,0.3-1.5,0.3
				c-0.6,0-1.1-0.1-1.6-0.3c-0.5-0.2-0.9-0.5-1.2-1c-0.3-0.4-0.6-0.9-0.8-1.5c-0.2-0.6-0.3-1.3-0.3-2.1c0-1,0.1-1.8,0.3-2.6
				c0.2-0.7,0.5-1.4,0.8-1.9c0.4-0.5,0.8-0.9,1.3-1.1c0.5-0.3,1.1-0.4,1.7-0.4c0.7,0,1.3,0.1,1.9,0.4c0.6,0.3,1,0.7,1.4,1.2
				l-1.2,1.3c-0.2-0.4-0.5-0.7-0.9-0.9c-0.4-0.2-0.8-0.3-1.2-0.3c-0.7,0-1.2,0.3-1.6,0.8c-0.4,0.5-0.6,1.3-0.6,2.2
				c0.2-0.4,0.5-0.6,0.9-0.9c0.4-0.2,0.8-0.3,1.3-0.3c0.5,0,1,0.1,1.5,0.3c0.5,0.2,0.8,0.4,1.2,0.8c0.3,0.3,0.6,0.7,0.8,1.1
				C48.2,51.8,48.3,52.3,48.3,52.8z M44.4,54.8c0.3,0,0.5-0.1,0.8-0.2c0.2-0.1,0.4-0.2,0.6-0.4c0.2-0.2,0.3-0.4,0.4-0.6
				c0.1-0.2,0.2-0.5,0.2-0.8c0-0.3-0.1-0.5-0.2-0.8c-0.1-0.2-0.2-0.4-0.4-0.6c-0.2-0.2-0.4-0.3-0.6-0.4c-0.2-0.1-0.5-0.1-0.8-0.1
				c-0.3,0-0.5,0-0.8,0.1c-0.2,0.1-0.5,0.2-0.6,0.4c-0.2,0.2-0.3,0.4-0.4,0.6c-0.1,0.2-0.2,0.5-0.2,0.8c0,0.3,0.1,0.5,0.2,0.8
				c0.1,0.2,0.2,0.5,0.4,0.6c0.2,0.2,0.4,0.3,0.6,0.4C43.9,54.7,44.2,54.8,44.4,54.8z"/>
			<path class="st2" d="M50,49.1l0.3-1.8h-0.6v-2h2v2.1l-0.5,1.8H50z"/>
			<path class="st2" d="M52.9,51.5c0-0.5,0.1-1,0.3-1.5c0.2-0.5,0.5-0.8,0.8-1.2c0.3-0.3,0.8-0.6,1.2-0.8c0.5-0.2,1-0.3,1.5-0.3
				c0.6,0,1.1,0.1,1.6,0.3c0.5,0.2,0.9,0.5,1.2,1c0.3,0.4,0.6,0.9,0.8,1.5c0.2,0.6,0.3,1.3,0.3,2.1c0,1-0.1,1.8-0.3,2.6
				c-0.2,0.7-0.5,1.4-0.8,1.9c-0.4,0.5-0.8,0.9-1.3,1.1c-0.5,0.3-1.1,0.4-1.7,0.4c-0.7,0-1.3-0.1-1.9-0.4c-0.6-0.3-1.1-0.7-1.4-1.2
				l1.2-1.3c0.2,0.4,0.5,0.7,0.9,0.9c0.4,0.2,0.8,0.3,1.2,0.3c0.7,0,1.2-0.3,1.6-0.8s0.6-1.3,0.6-2.2c-0.2,0.4-0.5,0.6-0.9,0.9
				c-0.4,0.2-0.8,0.3-1.4,0.3c-0.5,0-1-0.1-1.5-0.3c-0.4-0.2-0.8-0.4-1.2-0.8c-0.3-0.3-0.6-0.7-0.8-1.1C53,52.4,52.9,52,52.9,51.5z
				 M56.8,49.4c-0.3,0-0.5,0.1-0.8,0.2c-0.2,0.1-0.4,0.2-0.6,0.4c-0.2,0.2-0.3,0.4-0.4,0.6s-0.2,0.5-0.2,0.8c0,0.3,0.1,0.5,0.2,0.8
				c0.1,0.2,0.2,0.4,0.4,0.6c0.2,0.2,0.4,0.3,0.6,0.4c0.2,0.1,0.5,0.1,0.8,0.1c0.3,0,0.5,0,0.8-0.1c0.2-0.1,0.4-0.2,0.6-0.4
				c0.2-0.2,0.3-0.4,0.4-0.6c0.1-0.2,0.2-0.5,0.2-0.8c0-0.3-0.1-0.5-0.2-0.8s-0.2-0.5-0.4-0.6c-0.2-0.2-0.4-0.3-0.6-0.4
				C57.4,49.5,57.1,49.4,56.8,49.4z"/>
			<path class="st2" d="M62.3,49.1l0.3-1.8h-0.6v-2h2v2.1l-0.5,1.8H62.3z M65.2,49.1l0.3-1.8h-0.6v-2h2v2.1l-0.5,1.8H65.2z"/>
		</g>
		<g>
			<path class="st2" d="M48,103.3c0,0.5-0.1,1-0.3,1.5c-0.2,0.5-0.5,0.8-0.8,1.2c-0.4,0.3-0.8,0.6-1.2,0.8c-0.5,0.2-1,0.3-1.5,0.3
				c-0.6,0-1.1-0.1-1.6-0.3c-0.5-0.2-0.9-0.5-1.2-1c-0.3-0.4-0.6-0.9-0.8-1.5c-0.2-0.6-0.3-1.3-0.3-2.1c0-1,0.1-1.8,0.3-2.6
				c0.2-0.7,0.5-1.4,0.8-1.9c0.4-0.5,0.8-0.9,1.3-1.1c0.5-0.3,1.1-0.4,1.7-0.4c0.7,0,1.3,0.1,1.9,0.4c0.6,0.3,1,0.7,1.4,1.2
				l-1.2,1.3c-0.2-0.4-0.5-0.7-0.9-0.9c-0.4-0.2-0.8-0.3-1.2-0.3c-0.7,0-1.2,0.3-1.6,0.8c-0.4,0.5-0.6,1.3-0.6,2.2
				c0.2-0.4,0.5-0.6,0.9-0.9c0.4-0.2,0.8-0.3,1.3-0.3c0.5,0,1,0.1,1.5,0.3c0.5,0.2,0.8,0.4,1.2,0.8c0.3,0.3,0.6,0.7,0.8,1.1
				C47.9,102.3,48,102.8,48,103.3z M44.2,105.3c0.3,0,0.5-0.1,0.8-0.2c0.2-0.1,0.4-0.2,0.6-0.4c0.2-0.2,0.3-0.4,0.4-0.6
				c0.1-0.2,0.2-0.5,0.2-0.8c0-0.3-0.1-0.5-0.2-0.8c-0.1-0.2-0.2-0.4-0.4-0.6c-0.2-0.2-0.4-0.3-0.6-0.4c-0.2-0.1-0.5-0.1-0.8-0.1
				c-0.3,0-0.5,0-0.8,0.1c-0.2,0.1-0.5,0.2-0.6,0.4c-0.2,0.2-0.3,0.4-0.4,0.6c-0.1,0.2-0.2,0.5-0.2,0.8c0,0.3,0.1,0.5,0.2,0.8
				c0.1,0.2,0.2,0.5,0.4,0.6c0.2,0.2,0.4,0.3,0.6,0.4C43.6,105.3,43.9,105.3,44.2,105.3z"/>
			<path class="st2" d="M49.7,99.7l0.3-1.8h-0.6v-2h2v2.1l-0.5,1.8H49.7z"/>
			<path class="st2" d="M60.7,103.3c0,0.5-0.1,1-0.3,1.5c-0.2,0.5-0.5,0.8-0.8,1.2c-0.4,0.3-0.8,0.6-1.2,0.8c-0.5,0.2-1,0.3-1.5,0.3
				c-0.6,0-1.1-0.1-1.6-0.3c-0.5-0.2-0.9-0.5-1.2-1c-0.3-0.4-0.6-0.9-0.8-1.5c-0.2-0.6-0.3-1.3-0.3-2.1c0-1,0.1-1.8,0.3-2.6
				c0.2-0.7,0.5-1.4,0.8-1.9c0.4-0.5,0.8-0.9,1.3-1.1c0.5-0.3,1.1-0.4,1.7-0.4c0.7,0,1.3,0.1,1.9,0.4c0.6,0.3,1,0.7,1.4,1.2
				l-1.2,1.3c-0.2-0.4-0.5-0.7-0.9-0.9c-0.4-0.2-0.8-0.3-1.2-0.3c-0.7,0-1.2,0.3-1.6,0.8c-0.4,0.5-0.6,1.3-0.6,2.2
				c0.2-0.4,0.5-0.6,0.9-0.9c0.4-0.2,0.8-0.3,1.3-0.3c0.5,0,1,0.1,1.5,0.3c0.5,0.2,0.8,0.4,1.2,0.8c0.3,0.3,0.6,0.7,0.8,1.1
				C60.6,102.3,60.7,102.8,60.7,103.3z M56.8,105.3c0.3,0,0.5-0.1,0.8-0.2c0.2-0.1,0.4-0.2,0.6-0.4c0.2-0.2,0.3-0.4,0.4-0.6
				c0.1-0.2,0.2-0.5,0.2-0.8c0-0.3-0.1-0.5-0.2-0.8c-0.1-0.2-0.2-0.4-0.4-0.6c-0.2-0.2-0.4-0.3-0.6-0.4c-0.2-0.1-0.5-0.1-0.8-0.1
				s-0.5,0-0.8,0.1c-0.2,0.1-0.5,0.2-0.6,0.4c-0.2,0.2-0.3,0.4-0.4,0.6c-0.1,0.2-0.2,0.5-0.2,0.8c0,0.3,0.1,0.5,0.2,0.8
				c0.1,0.2,0.2,0.5,0.4,0.6c0.2,0.2,0.4,0.3,0.6,0.4C56.3,105.3,56.5,105.3,56.8,105.3z"/>
			<path class="st2" d="M62.3,99.7l0.3-1.8h-0.6v-2h2v2.1l-0.5,1.8H62.3z M65.2,99.7l0.3-1.8h-0.6v-2h2v2.1l-0.5,1.8H65.2z"/>
		</g>
		<g>
			<path class="st2" d="M48.8,153.9c0,0.5-0.1,1-0.3,1.5c-0.2,0.5-0.5,0.8-0.8,1.2c-0.4,0.3-0.8,0.6-1.2,0.8c-0.5,0.2-1,0.3-1.5,0.3
				c-0.6,0-1.1-0.1-1.6-0.3c-0.5-0.2-0.9-0.5-1.2-1c-0.3-0.4-0.6-0.9-0.8-1.5c-0.2-0.6-0.3-1.3-0.3-2.1c0-1,0.1-1.8,0.3-2.6
				c0.2-0.7,0.5-1.4,0.8-1.9c0.4-0.5,0.8-0.9,1.3-1.1c0.5-0.3,1.1-0.4,1.7-0.4c0.7,0,1.3,0.1,1.9,0.4c0.6,0.3,1,0.7,1.4,1.2
				l-1.2,1.3c-0.2-0.4-0.5-0.7-0.9-0.9c-0.4-0.2-0.8-0.3-1.2-0.3c-0.7,0-1.2,0.3-1.6,0.8c-0.4,0.5-0.6,1.3-0.6,2.2
				c0.2-0.4,0.5-0.6,0.9-0.9c0.4-0.2,0.8-0.3,1.3-0.3c0.5,0,1,0.1,1.5,0.3c0.5,0.2,0.8,0.4,1.2,0.8c0.3,0.3,0.6,0.7,0.8,1.1
				C48.7,152.9,48.8,153.4,48.8,153.9z M44.9,155.9c0.3,0,0.5-0.1,0.8-0.2c0.2-0.1,0.4-0.2,0.6-0.4c0.2-0.2,0.3-0.4,0.4-0.6
				c0.1-0.2,0.2-0.5,0.2-0.8c0-0.3-0.1-0.5-0.2-0.8c-0.1-0.2-0.2-0.4-0.4-0.6c-0.2-0.2-0.4-0.3-0.6-0.4c-0.2-0.1-0.5-0.1-0.8-0.1
				s-0.5,0-0.8,0.1c-0.2,0.1-0.5,0.2-0.6,0.4c-0.2,0.2-0.3,0.4-0.4,0.6c-0.1,0.2-0.2,0.5-0.2,0.8c0,0.3,0.1,0.5,0.2,0.8
				c0.1,0.2,0.2,0.5,0.4,0.6c0.2,0.2,0.4,0.3,0.6,0.4C44.4,155.8,44.6,155.9,44.9,155.9z"/>
			<path class="st2" d="M50.4,150.2l0.3-1.8h-0.6v-2h2v2.1l-0.5,1.8H50.4z"/>
			<path class="st2" d="M58.6,153.9c0.6,0.1,1.1,0.4,1.5,0.9c0.4,0.5,0.6,1.1,0.6,1.8c0,0.5-0.1,0.9-0.3,1.3c-0.2,0.4-0.4,0.7-0.8,1
				c-0.3,0.3-0.7,0.5-1.2,0.6s-1,0.2-1.6,0.2c-0.8,0-1.4-0.1-2-0.4c-0.6-0.2-1.1-0.6-1.5-1.1l1.1-1.4c0.3,0.3,0.6,0.6,0.9,0.8
				c0.4,0.2,0.8,0.3,1.3,0.3c0.6,0,1.1-0.1,1.4-0.4c0.3-0.2,0.5-0.6,0.5-1.1c0-0.5-0.2-0.9-0.6-1.2c-0.4-0.3-0.9-0.4-1.7-0.4H56
				v-1.5h0.5c0.6,0,1.1-0.1,1.4-0.4c0.3-0.3,0.5-0.6,0.5-1.1c0-0.4-0.1-0.7-0.4-0.9c-0.3-0.2-0.6-0.3-1.1-0.3
				c-0.5,0-0.9,0.1-1.2,0.3c-0.4,0.2-0.7,0.5-0.9,0.9l-1.3-1.4c0.2-0.2,0.4-0.4,0.6-0.6c0.2-0.2,0.5-0.3,0.8-0.5
				c0.3-0.1,0.7-0.2,1-0.3c0.4-0.1,0.8-0.1,1.1-0.1c0.5,0,1,0.1,1.4,0.2c0.4,0.1,0.8,0.3,1.1,0.5c0.3,0.2,0.5,0.5,0.7,0.8
				c0.2,0.3,0.2,0.7,0.2,1.1c0,0.3,0,0.6-0.1,0.9c-0.1,0.3-0.2,0.5-0.4,0.7c-0.2,0.2-0.4,0.4-0.6,0.6
				C59.2,153.7,58.9,153.8,58.6,153.9z"/>
			<path class="st2" d="M62.3,150.2l0.3-1.8h-0.6v-2h2v2.1l-0.5,1.8H62.3z M65.2,150.2l0.3-1.8h-0.6v-2h2v2.1l-0.5,1.8H65.2z"/>
		</g>
		<g>
			<path class="st2" d="M47.9,204.4c0,0.5-0.1,1-0.3,1.5c-0.2,0.5-0.5,0.8-0.8,1.2c-0.4,0.3-0.8,0.6-1.2,0.8c-0.5,0.2-1,0.3-1.5,0.3
				c-0.6,0-1.1-0.1-1.6-0.3c-0.5-0.2-0.9-0.5-1.2-1c-0.3-0.4-0.6-0.9-0.8-1.5c-0.2-0.6-0.3-1.3-0.3-2.1c0-1,0.1-1.8,0.3-2.6
				c0.2-0.7,0.5-1.4,0.8-1.9c0.4-0.5,0.8-0.9,1.3-1.1c0.5-0.3,1.1-0.4,1.7-0.4c0.7,0,1.3,0.1,1.9,0.4c0.6,0.3,1,0.7,1.4,1.2
				l-1.2,1.3c-0.2-0.4-0.5-0.7-0.9-0.9c-0.4-0.2-0.8-0.3-1.2-0.3c-0.7,0-1.2,0.3-1.6,0.8c-0.4,0.5-0.6,1.3-0.6,2.2
				c0.2-0.4,0.5-0.6,0.9-0.9c0.4-0.2,0.8-0.3,1.3-0.3c0.5,0,1,0.1,1.5,0.3c0.5,0.2,0.8,0.4,1.2,0.8c0.3,0.3,0.6,0.7,0.8,1.1
				C47.8,203.4,47.9,203.9,47.9,204.4z M44.1,206.4c0.3,0,0.5-0.1,0.8-0.2c0.2-0.1,0.4-0.2,0.6-0.4c0.2-0.2,0.3-0.4,0.4-0.6
				c0.1-0.2,0.2-0.5,0.2-0.8c0-0.3-0.1-0.5-0.2-0.8c-0.1-0.2-0.2-0.4-0.4-0.6c-0.2-0.2-0.4-0.3-0.6-0.4c-0.2-0.1-0.5-0.1-0.8-0.1
				c-0.3,0-0.5,0-0.8,0.1c-0.2,0.1-0.5,0.2-0.6,0.4c-0.2,0.2-0.3,0.4-0.4,0.6c-0.1,0.2-0.2,0.5-0.2,0.8c0,0.3,0.1,0.5,0.2,0.8
				c0.1,0.2,0.2,0.5,0.4,0.6c0.2,0.2,0.4,0.3,0.6,0.4C43.5,206.4,43.8,206.4,44.1,206.4z"/>
			<path class="st2" d="M49.6,200.8l0.3-1.8h-0.6v-2h2v2.1l-0.5,1.8H49.6z"/>
			<path class="st2" d="M60.6,203.6c0,0.7-0.1,1.3-0.3,1.8c-0.2,0.6-0.5,1-0.8,1.4c-0.3,0.4-0.8,0.7-1.2,0.9c-0.5,0.2-1,0.3-1.5,0.3
				c-0.6,0-1.1-0.1-1.5-0.3c-0.5-0.2-0.9-0.5-1.2-0.9c-0.3-0.4-0.6-0.9-0.8-1.4c-0.2-0.6-0.3-1.2-0.3-1.8c0-0.7,0.1-1.3,0.3-1.8
				c0.2-0.6,0.5-1,0.8-1.4c0.3-0.4,0.8-0.7,1.2-1c0.5-0.2,1-0.3,1.5-0.3c0.5,0,1.1,0.1,1.5,0.3c0.5,0.2,0.9,0.5,1.2,1
				c0.3,0.4,0.6,0.9,0.8,1.4C60.5,202.3,60.6,202.9,60.6,203.6z M58.5,203.6c0-0.4,0-0.8-0.1-1.1c-0.1-0.3-0.2-0.6-0.4-0.9
				c-0.2-0.2-0.4-0.4-0.6-0.6c-0.2-0.1-0.5-0.2-0.7-0.2c-0.3,0-0.5,0.1-0.8,0.2c-0.2,0.1-0.4,0.3-0.6,0.6c-0.2,0.2-0.3,0.5-0.4,0.9
				c-0.1,0.3-0.1,0.7-0.1,1.1c0,0.4,0,0.8,0.1,1.1c0.1,0.3,0.2,0.6,0.4,0.9c0.2,0.2,0.4,0.4,0.6,0.6c0.2,0.1,0.5,0.2,0.8,0.2
				c0.3,0,0.5-0.1,0.7-0.2c0.2-0.1,0.4-0.3,0.6-0.6c0.2-0.2,0.3-0.5,0.4-0.9C58.5,204.3,58.5,204,58.5,203.6z"/>
			<path class="st2" d="M62.3,200.8l0.3-1.8h-0.6v-2h2v2.1l-0.5,1.8H62.3z M65.2,200.8l0.3-1.8h-0.6v-2h2v2.1l-0.5,1.8H65.2z"/>
		</g>
		<g>
			<path class="st2" d="M45.4,253.7c0.5,0,1,0.1,1.4,0.2c0.4,0.2,0.8,0.4,1.1,0.7c0.3,0.3,0.6,0.7,0.7,1.1c0.2,0.4,0.3,0.9,0.3,1.4
				c0,0.5-0.1,1-0.3,1.5c-0.2,0.4-0.5,0.8-0.8,1.1c-0.4,0.3-0.8,0.6-1.2,0.7c-0.5,0.2-1,0.3-1.6,0.3c-0.8,0-1.5-0.2-2.1-0.5
				c-0.6-0.3-1.1-0.8-1.4-1.4l1.2-1.2c0.3,0.4,0.6,0.7,1.1,0.9c0.4,0.2,0.9,0.3,1.3,0.3c0.5,0,1-0.2,1.3-0.5
				c0.3-0.3,0.5-0.8,0.5-1.3c0-0.5-0.2-0.9-0.5-1.3c-0.3-0.3-0.7-0.5-1.2-0.5c-0.3,0-0.6,0.1-0.9,0.2c-0.3,0.1-0.5,0.4-0.7,0.6h-1.8
				c0,0,0-0.1,0.1-0.3c0-0.2,0.1-0.4,0.1-0.8c0.1-0.3,0.1-0.6,0.2-1s0.1-0.8,0.2-1.1c0.2-0.9,0.4-1.9,0.6-3.1h5.2v1.8h-3.8l-0.4,2.4
				c0.1-0.1,0.3-0.2,0.5-0.3C44.7,253.8,45,253.7,45.4,253.7z"/>
			<path class="st2" d="M50.4,251.3l0.3-1.8h-0.6v-2h2v2.1l-0.5,1.8H50.4z"/>
			<path class="st2" d="M58.2,251.6h-4.8v-1.8h8L56,260.4h-2.3L58.2,251.6z"/>
			<path class="st2" d="M62.3,251.3l0.3-1.8h-0.6v-2h2v2.1l-0.5,1.8H62.3z M65.2,251.3l0.3-1.8h-0.6v-2h2v2.1l-0.5,1.8H65.2z"/>
		</g>
		<g>
			<path class="st2" d="M45.2,304.3c0.5,0,1,0.1,1.4,0.2c0.4,0.2,0.8,0.4,1.1,0.7c0.3,0.3,0.6,0.7,0.7,1.1c0.2,0.4,0.3,0.9,0.3,1.4
				c0,0.5-0.1,1-0.3,1.5c-0.2,0.4-0.5,0.8-0.8,1.1c-0.4,0.3-0.8,0.6-1.2,0.7c-0.5,0.2-1,0.3-1.6,0.3c-0.8,0-1.5-0.2-2.1-0.5
				c-0.6-0.3-1.1-0.8-1.4-1.4l1.2-1.2c0.3,0.4,0.6,0.7,1.1,0.9c0.4,0.2,0.9,0.3,1.3,0.3c0.5,0,1-0.2,1.3-0.5
				c0.3-0.3,0.5-0.8,0.5-1.3c0-0.5-0.2-0.9-0.5-1.3c-0.3-0.3-0.7-0.5-1.2-0.5c-0.3,0-0.6,0.1-0.9,0.2c-0.3,0.1-0.5,0.4-0.7,0.6h-1.8
				c0,0,0-0.1,0.1-0.3c0-0.2,0.1-0.4,0.1-0.8c0.1-0.3,0.1-0.6,0.2-1c0.1-0.4,0.1-0.8,0.2-1.1c0.2-0.9,0.4-1.9,0.6-3.1h5.2v1.8h-3.8
				l-0.4,2.4c0.1-0.1,0.3-0.2,0.5-0.3C44.6,304.3,44.9,304.3,45.2,304.3z"/>
			<path class="st2" d="M50.2,301.9l0.3-1.8H50v-2h2v2.1l-0.5,1.8H50.2z"/>
			<path class="st2" d="M57.4,311v-2.2H53v-1.8l5-6.5h1.4v6.4h1.3v1.8h-1.3v2.2H57.4z M55,306.9h2.6v-3.4L55,306.9z"/>
			<path class="st2" d="M62.3,301.9l0.3-1.8h-0.6v-2h2v2.1l-0.5,1.8H62.3z M65.2,301.9l0.3-1.8h-0.6v-2h2v2.1l-0.5,1.8H65.2z"/>
		</g>
		<g>
			<path class="st2" d="M46.4,354.8c0.5,0,1,0.1,1.4,0.2c0.4,0.2,0.8,0.4,1.1,0.7s0.6,0.7,0.7,1.1c0.2,0.4,0.3,0.9,0.3,1.4
				c0,0.5-0.1,1-0.3,1.5c-0.2,0.4-0.5,0.8-0.8,1.1c-0.4,0.3-0.8,0.6-1.2,0.7c-0.5,0.2-1,0.3-1.6,0.3c-0.8,0-1.5-0.2-2.1-0.5
				c-0.6-0.3-1.1-0.8-1.4-1.3l1.2-1.2c0.3,0.4,0.6,0.7,1.1,0.9c0.4,0.2,0.9,0.3,1.3,0.3c0.5,0,1-0.2,1.3-0.5
				c0.3-0.3,0.5-0.8,0.5-1.3c0-0.5-0.2-0.9-0.5-1.3c-0.3-0.3-0.7-0.5-1.2-0.5c-0.3,0-0.6,0.1-0.9,0.2c-0.3,0.2-0.5,0.4-0.7,0.6h-1.8
				c0,0,0-0.1,0.1-0.3c0-0.2,0.1-0.4,0.1-0.8c0.1-0.3,0.1-0.6,0.2-1c0.1-0.4,0.1-0.8,0.2-1.1c0.2-0.9,0.4-2,0.6-3.1h5.2v1.8h-3.8
				l-0.4,2.4c0.1-0.1,0.3-0.2,0.5-0.3C45.7,354.9,46,354.8,46.4,354.8z"/>
			<path class="st2" d="M51.4,352.4l0.3-1.8h-0.6v-2h2v2.1l-0.5,1.8H51.4z"/>
			<path class="st2" d="M60.9,357.8v1.8h-6.1v-1.8H57v-4.5c-0.1,0.1-0.2,0.2-0.4,0.4c-0.2,0.1-0.4,0.2-0.6,0.4
				c-0.2,0.1-0.5,0.2-0.7,0.3c-0.2,0.1-0.5,0.1-0.7,0.1v-1.9c0.2,0,0.4-0.1,0.7-0.2c0.3-0.1,0.5-0.3,0.8-0.4
				c0.2-0.2,0.5-0.3,0.7-0.5c0.2-0.2,0.3-0.3,0.4-0.4H59v6.8H60.9z"/>
			<path class="st2" d="M62.3,352.4l0.3-1.8h-0.6v-2h2v2.1l-0.5,1.8H62.3z M65.2,352.4l0.3-1.8h-0.6v-2h2v2.1l-0.5,1.8H65.2z"/>
		</g>
		<g>
			<path class="st2" d="M44.8,412v-2.2h-4.4V408l5-6.5h1.4v6.4h1.3v1.8h-1.3v2.2H44.8z M42.4,408H45v-3.4L42.4,408z"/>
			<path class="st2" d="M49.7,403l0.3-1.8h-0.6v-2h2v2.1L51,403H49.7z"/>
			<path class="st2" d="M60.6,407c0,0.5-0.1,1-0.3,1.4c-0.2,0.4-0.5,0.7-0.8,1c-0.4,0.3-0.8,0.5-1.2,0.7c-0.5,0.2-1,0.2-1.5,0.2
				c-0.5,0-1-0.1-1.5-0.2c-0.5-0.2-0.9-0.4-1.2-0.7c-0.4-0.3-0.6-0.7-0.8-1.1c-0.2-0.4-0.3-0.9-0.3-1.4c0-0.3,0-0.6,0.1-0.8
				c0.1-0.3,0.2-0.5,0.4-0.7c0.2-0.2,0.3-0.4,0.5-0.6c0.2-0.2,0.4-0.3,0.6-0.4c-0.4-0.2-0.7-0.5-0.9-0.8c-0.3-0.4-0.4-0.8-0.4-1.2
				c0-0.5,0.1-0.9,0.3-1.3c0.2-0.4,0.5-0.7,0.8-0.9c0.3-0.2,0.7-0.4,1.1-0.6c0.4-0.1,0.8-0.2,1.2-0.2c0.4,0,0.8,0.1,1.2,0.2
				c0.4,0.1,0.8,0.3,1.1,0.6c0.3,0.2,0.6,0.6,0.8,0.9c0.2,0.4,0.3,0.8,0.3,1.3c0,0.2,0,0.4-0.1,0.6c-0.1,0.2-0.2,0.4-0.3,0.6
				s-0.3,0.3-0.4,0.5c-0.2,0.1-0.4,0.3-0.5,0.3c0.2,0.1,0.4,0.2,0.6,0.4c0.2,0.2,0.4,0.4,0.5,0.6c0.2,0.2,0.3,0.5,0.4,0.7
				C60.6,406.4,60.6,406.7,60.6,407z M58.6,406.9c0-0.2-0.1-0.5-0.2-0.7c-0.1-0.2-0.2-0.4-0.4-0.5c-0.2-0.1-0.4-0.2-0.6-0.3
				c-0.2-0.1-0.4-0.1-0.7-0.1c-0.2,0-0.5,0-0.7,0.1c-0.2,0.1-0.4,0.2-0.6,0.3c-0.2,0.1-0.3,0.3-0.4,0.5c-0.1,0.2-0.1,0.4-0.1,0.7
				c0,0.2,0.1,0.5,0.2,0.7c0.1,0.2,0.2,0.4,0.4,0.5c0.2,0.1,0.4,0.2,0.6,0.3c0.2,0.1,0.4,0.1,0.7,0.1c0.2,0,0.5,0,0.7-0.1
				c0.2-0.1,0.4-0.2,0.6-0.3c0.2-0.1,0.3-0.3,0.4-0.5C58.6,407.3,58.6,407.1,58.6,406.9z M55.3,402.5c0,0.2,0,0.4,0.1,0.5
				c0.1,0.2,0.2,0.3,0.4,0.4c0.1,0.1,0.3,0.2,0.5,0.2c0.2,0.1,0.4,0.1,0.5,0.1c0.2,0,0.3,0,0.5-0.1c0.2-0.1,0.3-0.1,0.5-0.2
				c0.1-0.1,0.3-0.2,0.4-0.4c0.1-0.2,0.1-0.3,0.1-0.5c0-0.4-0.1-0.7-0.4-0.9c-0.3-0.2-0.7-0.3-1.1-0.3c-0.4,0-0.8,0.1-1.1,0.3
				C55.4,401.8,55.3,402.1,55.3,402.5z"/>
			<path class="st2" d="M62.3,403l0.3-1.8h-0.6v-2h2v2.1l-0.5,1.8H62.3z M65.2,403l0.3-1.8h-0.6v-2h2v2.1l-0.5,1.8H65.2z"/>
		</g>
	</g>
</g>
<g id="Character">
	<g>
		<g>
			<g>
				<g>
					<path class="st3" d="M301.7,288.9c25.7,55,42.2,80.2,74.1,117.6c33.6,39.4,84.4-7.7,69-46.7c-9.9-25-49.4-106.1-83.2-137
						c-21.4-19.6-39.5-28.5-80.7-27.3"/>
				</g>
			</g>
			<g>
				<g>
					<path class="st4" d="M436.7,404.6c4.5-10.7,5.5-23,0.8-34.7C427,343.5,385,257.8,349.3,225c-19.5-17.9-36.3-27.4-68.4-29.1
						l-0.1-0.3c41.2-1.2,59.3,7.7,80.7,27.3c33.8,30.9,73.4,112,83.2,137C451,375.5,446.5,392.4,436.7,404.6z"/>
				</g>
			</g>
			<g>
				<g>
					<path class="st0" d="M301.7,288.9c25.7,55,42.2,80.2,74.1,117.6c33.6,39.4,84.4-7.7,69-46.7c-9.9-25-49.4-106.1-83.2-137
						c-21.4-19.6-39.5-28.5-80.7-27.3"/>
				</g>
			</g>
		</g>
		<g>
			<g>
				<path class="st5" d="M198.3,288.9c-25.7,55-42.2,80.2-74.1,117.6c-33.6,39.4-84.4-7.7-69-46.7c9.9-25,49.4-106.1,83.2-137
					c21.4-19.6,39.5-28.5,80.7-27.3"/>
			</g>
		</g>
		<g>
			<g>
				<path class="st3" d="M391.6,465.7H108.4c0,0-6.2-22.4,13.8-61.6c2.9-5.8,2.4-145.1,49.3-187.9c24.7-22.6,56.1-21.9,78.5-21.9
					c22.4,0,53.8-0.7,78.5,21.9c46.9,42.9,46.4,182.1,49.3,187.9C397.8,443.3,391.6,465.7,391.6,465.7z"/>
				<g>
					<path class="st0" d="M361.4,282.2c14.1,54.5,14.5,118.1,16.5,121.9c19.9,39.2,13.8,61.6,13.8,61.6H108.4
						c0,0-6.2-22.4,13.8-61.6c2-3.9,2.4-67.4,16.5-121.9"/>
					<path class="st0" d="M203.6,195.7c16.7-0.7,32.6-0.6,46.4-0.6s29.8-0.1,46.4,0.6"/>
				</g>
			</g>
			<path class="st0" d="M216.5,401.6c0,0,54.9-1.1,77.6-32.3"/>
			<path class="st0" d="M236,389.4c0,0,20.4-0.9,33.5-9"/>
		</g>
		<g>
			<path class="st5" d="M249.8,194.4c-15.7,0-25.9,12.9-25.9,22.3s9.7,21,25.9,21c16.2,0,26.3-12.9,26.3-21.7
				S265.2,194.4,249.8,194.4z"/>
			<path class="st6" d="M235.6,210.7h28.9c0,0-3.9,15-14.4,15C239.5,225.7,235.6,210.7,235.6,210.7z"/>
			<g>
				<g>
					<path class="st7" d="M217.1,176.4c-0.8-21.9,13.3-40.3,31.7-41.1c18.3-0.8,33.9,16.3,34.7,38.2c0.8,21.9-13.3,40.3-31.7,41.1
						C233.4,215.4,217.9,198.3,217.1,176.4z"/>
					<path class="st4" d="M251.8,214.6c-5.1,0.2-10-1-14.4-3.3c2.4,0.6,4.8,0.8,7.3,0.7c17.4-0.8,30.8-18.2,30-39
						c-0.8-20.8-15.5-37-32.9-36.2c-0.4,0-0.9,0-1.3,0.1c2.6-1,5.4-1.5,8.3-1.6c18.3-0.8,33.9,16.3,34.7,38.2
						C284.3,195.4,270.1,213.8,251.8,214.6z"/>
					<path class="st0" d="M217.1,176.4c-0.8-21.9,13.3-40.3,31.7-41.1c18.3-0.8,33.9,16.3,34.7,38.2c0.8,21.9-13.3,40.3-31.7,41.1
						C233.4,215.4,217.9,198.3,217.1,176.4z"/>
				</g>
				<g>
					<path class="st5" d="M213,170.2c0,0,0.5-2.5,6-3.9c12.2-3.2,40.2-7.1,63.8-0.1c1.9,0.6,3.9,1.8,4.2,3.1c0,0,2.1-11.9-2.1-16.9
						c-0.9-1.1-4.6-3.2-4.6-3.2s-4.4-16.6-12.1-22.3c-7.6-5.8-13.9-1-19-0.4c-5.1,0.6-14.8-2.1-21.6,7.9c-6.8,10-7.5,16.8-7.5,16.8
						s-3.4,1.6-4.1,2.6C211.3,161.1,213,170.2,213,170.2z"/>
					<path class="st0" d="M228.9,149.8c0,0,20.7-7.6,42.3,0.8"/>
					<path class="st6" d="M212,170c-0.6,2.5,5.1,3.7,5.1,3.7l0.1-6.3C217.2,167.4,212.4,168.3,212,170z"/>
					<path class="st6" d="M288,169.1c0.6,2.5-5.3,3.7-5.3,3.7l-0.1-6.3C282.5,166.4,287.6,167.4,288,169.1z"/>
				</g>
			</g>
		</g>
		<g>
			<rect x="172" y="269.8" class="st8" width="156" height="115.2"/>
			<g>
				<path class="st4" d="M195.6,303.4v-12.1h5.2c0.6,0,1.1,0.1,1.6,0.4c0.5,0.2,0.9,0.6,1.2,0.9c0.3,0.4,0.6,0.8,0.8,1.3
					c0.2,0.5,0.3,1,0.3,1.5c0,0.5-0.1,1-0.3,1.5c-0.2,0.5-0.4,0.9-0.8,1.3c-0.3,0.4-0.7,0.7-1.2,0.9c-0.5,0.2-1,0.3-1.6,0.3h-2.5
					v3.9H195.6z M198.4,297h2.3c0.3,0,0.6-0.1,0.9-0.4c0.2-0.3,0.4-0.7,0.4-1.2c0-0.3,0-0.5-0.1-0.7c-0.1-0.2-0.2-0.4-0.3-0.5
					c-0.1-0.1-0.3-0.2-0.4-0.3c-0.2-0.1-0.3-0.1-0.5-0.1h-2.2V297z"/>
				<path class="st4" d="M211.5,303.5c-0.9,0-1.7-0.2-2.5-0.5c-0.7-0.4-1.4-0.8-1.9-1.4c-0.5-0.6-0.9-1.2-1.2-2
					c-0.3-0.7-0.4-1.5-0.4-2.3c0-0.8,0.2-1.6,0.5-2.3c0.3-0.7,0.7-1.4,1.3-2c0.5-0.6,1.2-1,1.9-1.3c0.7-0.3,1.5-0.5,2.4-0.5
					c0.9,0,1.7,0.2,2.5,0.5c0.7,0.4,1.4,0.8,1.9,1.4c0.5,0.6,0.9,1.2,1.2,2c0.3,0.7,0.4,1.5,0.4,2.3c0,0.8-0.2,1.6-0.5,2.3
					c-0.3,0.7-0.7,1.4-1.3,2c-0.5,0.6-1.2,1-1.9,1.4C213.2,303.3,212.4,303.5,211.5,303.5z M208.4,297.3c0,0.5,0.1,0.9,0.2,1.4
					c0.1,0.4,0.3,0.8,0.6,1.2s0.6,0.6,1,0.8c0.4,0.2,0.9,0.3,1.4,0.3c0.5,0,1-0.1,1.4-0.3c0.4-0.2,0.7-0.5,1-0.8
					c0.3-0.3,0.5-0.7,0.6-1.2c0.1-0.4,0.2-0.9,0.2-1.3c0-0.5-0.1-0.9-0.2-1.4c-0.1-0.4-0.3-0.8-0.6-1.2c-0.3-0.3-0.6-0.6-1-0.8
					c-0.4-0.2-0.8-0.3-1.4-0.3c-0.5,0-1,0.1-1.4,0.3c-0.4,0.2-0.7,0.5-1,0.8c-0.3,0.3-0.5,0.7-0.6,1.2
					C208.4,296.4,208.4,296.9,208.4,297.3z"/>
				<path class="st4" d="M219.2,303.4v-12.1h2.8v9.7h5.9v2.5H219.2z"/>
				<path class="st4" d="M229.2,303.4v-12.1h2.8v12.1H229.2z"/>
				<path class="st4" d="M233.6,297.2c0-0.7,0.1-1.5,0.4-2.2c0.3-0.7,0.7-1.4,1.2-1.9c0.5-0.6,1.2-1,1.9-1.4
					c0.8-0.4,1.6-0.5,2.6-0.5c1.1,0,2.1,0.2,3,0.7c0.8,0.5,1.5,1.1,1.9,1.9l-2.1,1.5c-0.1-0.3-0.3-0.6-0.5-0.8
					c-0.2-0.2-0.4-0.4-0.7-0.5c-0.2-0.1-0.5-0.2-0.8-0.3c-0.3-0.1-0.5-0.1-0.8-0.1c-0.5,0-1,0.1-1.4,0.3s-0.7,0.5-1,0.8
					c-0.3,0.3-0.5,0.7-0.6,1.2c-0.1,0.4-0.2,0.9-0.2,1.3c0,0.5,0.1,0.9,0.2,1.4c0.1,0.4,0.4,0.8,0.6,1.2c0.3,0.3,0.6,0.6,1,0.8
					c0.4,0.2,0.8,0.3,1.3,0.3c0.3,0,0.5,0,0.8-0.1c0.3-0.1,0.5-0.2,0.8-0.3c0.2-0.1,0.5-0.3,0.7-0.5c0.2-0.2,0.4-0.5,0.5-0.8
					l2.3,1.3c-0.2,0.4-0.5,0.8-0.8,1.2c-0.4,0.4-0.8,0.6-1.2,0.9c-0.5,0.2-1,0.4-1.5,0.5c-0.5,0.1-1,0.2-1.5,0.2
					c-0.9,0-1.7-0.2-2.4-0.5c-0.7-0.4-1.4-0.8-1.9-1.4c-0.5-0.6-0.9-1.3-1.2-2C233.7,298.7,233.6,298,233.6,297.2z"/>
				<path class="st4" d="M254.5,300.9v2.5H246v-12.1h8.4v2.5h-5.6v2.4h4.8v2.3h-4.8v2.6H254.5z"/>
				<path class="st4" d="M260.2,303.4v-12.1h4.5c1,0,1.9,0.2,2.6,0.5c0.8,0.3,1.4,0.8,1.9,1.3c0.5,0.5,0.9,1.2,1.1,1.9
					c0.3,0.7,0.4,1.5,0.4,2.3c0,0.9-0.1,1.8-0.4,2.5c-0.3,0.7-0.7,1.4-1.2,1.9c-0.5,0.5-1.2,0.9-1.9,1.2c-0.7,0.3-1.6,0.4-2.5,0.4
					H260.2z M267.9,297.3c0-0.5-0.1-1-0.2-1.5c-0.1-0.4-0.4-0.8-0.6-1.1c-0.3-0.3-0.6-0.6-1-0.7c-0.4-0.2-0.8-0.3-1.3-0.3H263v7.2
					h1.7c0.5,0,1-0.1,1.4-0.3c0.4-0.2,0.7-0.4,1-0.8c0.3-0.3,0.5-0.7,0.6-1.1C267.9,298.3,267.9,297.8,267.9,297.3z"/>
				<path class="st4" d="M280.9,300.9v2.5h-8.5v-12.1h8.4v2.5h-5.6v2.4h4.8v2.3h-4.8v2.6H280.9z"/>
				<path class="st4" d="M282.7,303.4v-12.1h5.2c0.6,0,1.1,0.1,1.6,0.4c0.5,0.2,0.9,0.6,1.2,0.9c0.3,0.4,0.6,0.8,0.8,1.3
					c0.2,0.5,0.3,1,0.3,1.5c0,0.5-0.1,1-0.3,1.5c-0.2,0.5-0.4,0.9-0.8,1.3c-0.3,0.4-0.7,0.7-1.2,0.9c-0.5,0.2-1,0.3-1.6,0.3h-2.5
					v3.9H282.7z M285.5,297h2.3c0.3,0,0.6-0.1,0.9-0.4c0.2-0.3,0.4-0.7,0.4-1.2c0-0.3,0-0.5-0.1-0.7c-0.1-0.2-0.2-0.4-0.3-0.5
					c-0.1-0.1-0.3-0.2-0.4-0.3c-0.2-0.1-0.3-0.1-0.5-0.1h-2.2V297z"/>
				<path class="st4" d="M302.5,293.7h-3.7v9.7H296v-9.7h-3.7v-2.5h10.2V293.7z"/>
				<path class="st4" d="M302.4,303.4v-2.8h2.2v2.8H302.4z"/>
			</g>
			<g>
				<path class="st4" d="M216.8,329.6c0-0.5,0-1,0.1-1.4c0.1-0.4,0.2-0.8,0.4-1.2c0.2-0.3,0.5-0.7,0.8-1c0.3-0.3,0.7-0.6,1.2-0.9
					c0.5-0.3,1-0.5,1.3-0.7c0.4-0.2,0.6-0.4,0.9-0.5c0.2-0.1,0.4-0.3,0.5-0.4c0.1-0.1,0.1-0.3,0.1-0.4c0-0.3-0.1-0.6-0.3-0.8
					c-0.2-0.2-0.6-0.3-1-0.3c-0.5,0-0.9,0.1-1.2,0.4c-0.4,0.2-0.7,0.5-1,0.9l-1.7-2c0.2-0.2,0.4-0.4,0.7-0.6c0.3-0.2,0.7-0.4,1-0.5
					c0.4-0.2,0.8-0.3,1.3-0.4c0.5-0.1,0.9-0.1,1.4-0.1c1.2,0,2.2,0.3,2.8,0.8c0.7,0.5,1,1.3,1,2.2c0,0.4-0.1,0.7-0.2,1
					c-0.1,0.3-0.3,0.6-0.5,0.8c-0.2,0.2-0.4,0.4-0.6,0.6c-0.2,0.2-0.5,0.3-0.7,0.5c-0.2,0.1-0.4,0.2-0.6,0.4
					c-0.2,0.1-0.5,0.3-0.7,0.4c-0.2,0.1-0.4,0.3-0.6,0.4c-0.2,0.1-0.3,0.3-0.5,0.4h4.6v2.5H216.8z"/>
				<path class="st4" d="M231,331.8v-2.3h-4.7V327l5.6-7.1h1.9v7.1h1.5v2.5h-1.5v2.3H231z M229,327h2.3v-3L229,327z"/>
				<path class="st4" d="M236.8,329.6v-2.8h2.2v2.8H236.8z"/>
				<path class="st4" d="M249.7,324.6c0,0.8-0.1,1.4-0.3,2.1c-0.2,0.6-0.5,1.2-0.9,1.6c-0.4,0.5-0.9,0.8-1.4,1.1
					c-0.5,0.3-1.1,0.4-1.8,0.4c-0.6,0-1.2-0.1-1.8-0.4c-0.5-0.3-1-0.6-1.4-1.1c-0.4-0.5-0.7-1-0.9-1.6c-0.2-0.6-0.3-1.3-0.3-2.1
					c0-0.8,0.1-1.4,0.3-2.1c0.2-0.6,0.5-1.2,0.9-1.6c0.4-0.5,0.9-0.8,1.4-1.1c0.5-0.3,1.1-0.4,1.8-0.4c0.6,0,1.2,0.1,1.8,0.4
					c0.5,0.3,1,0.6,1.4,1.1c0.4,0.5,0.7,1,0.9,1.6C249.6,323.2,249.7,323.9,249.7,324.6z M246.9,324.6c0-0.8-0.2-1.4-0.5-1.9
					c-0.3-0.5-0.7-0.7-1.2-0.7c-0.5,0-0.9,0.2-1.3,0.7c-0.3,0.5-0.5,1.1-0.5,1.9c0,0.8,0.2,1.4,0.5,1.9c0.3,0.5,0.7,0.7,1.3,0.7
					c0.5,0,0.9-0.2,1.2-0.7C246.8,326,246.9,325.4,246.9,324.6z"/>
				<path class="st4" d="M251.1,329.6c0-0.5,0-1,0.1-1.4c0.1-0.4,0.2-0.8,0.4-1.2c0.2-0.3,0.5-0.7,0.8-1c0.3-0.3,0.7-0.6,1.2-0.9
					c0.5-0.3,1-0.5,1.3-0.7c0.4-0.2,0.6-0.4,0.9-0.5c0.2-0.1,0.4-0.3,0.5-0.4c0.1-0.1,0.1-0.3,0.1-0.4c0-0.3-0.1-0.6-0.3-0.8
					c-0.2-0.2-0.6-0.3-1-0.3c-0.5,0-0.9,0.1-1.2,0.4c-0.4,0.2-0.7,0.5-1,0.9l-1.7-2c0.2-0.2,0.4-0.4,0.7-0.6c0.3-0.2,0.7-0.4,1-0.5
					c0.4-0.2,0.8-0.3,1.3-0.4c0.5-0.1,0.9-0.1,1.4-0.1c1.2,0,2.2,0.3,2.8,0.8c0.7,0.5,1,1.3,1,2.2c0,0.4-0.1,0.7-0.2,1
					c-0.1,0.3-0.3,0.6-0.5,0.8c-0.2,0.2-0.4,0.4-0.6,0.6c-0.2,0.2-0.5,0.3-0.7,0.5c-0.2,0.1-0.4,0.2-0.6,0.4
					c-0.2,0.1-0.5,0.3-0.7,0.4c-0.2,0.1-0.4,0.3-0.6,0.4c-0.2,0.1-0.4,0.3-0.5,0.4h4.6v2.5H251.1z"/>
				<path class="st4" d="M261.3,329.6v-2.8h2.2v2.8H261.3z"/>
				<path class="st4" d="M265.1,329.6c0-0.5,0-1,0.1-1.4c0.1-0.4,0.2-0.8,0.4-1.2c0.2-0.3,0.5-0.7,0.8-1c0.3-0.3,0.7-0.6,1.2-0.9
					c0.5-0.3,1-0.5,1.3-0.7s0.6-0.4,0.9-0.5c0.2-0.1,0.4-0.3,0.5-0.4c0.1-0.1,0.1-0.3,0.1-0.4c0-0.3-0.1-0.6-0.3-0.8
					c-0.2-0.2-0.6-0.3-1-0.3c-0.5,0-0.9,0.1-1.2,0.4c-0.4,0.2-0.7,0.5-1,0.9l-1.7-2c0.2-0.2,0.4-0.4,0.7-0.6c0.3-0.2,0.7-0.4,1-0.5
					c0.4-0.2,0.8-0.3,1.3-0.4c0.5-0.1,0.9-0.1,1.4-0.1c1.2,0,2.2,0.3,2.8,0.8c0.7,0.5,1,1.3,1,2.2c0,0.4-0.1,0.7-0.2,1
					c-0.1,0.3-0.3,0.6-0.5,0.8c-0.2,0.2-0.4,0.4-0.6,0.6c-0.2,0.2-0.5,0.3-0.7,0.5c-0.2,0.1-0.4,0.2-0.6,0.4
					c-0.2,0.1-0.5,0.3-0.7,0.4c-0.2,0.1-0.4,0.3-0.6,0.4c-0.2,0.1-0.4,0.3-0.5,0.4h4.6v2.5H265.1z"/>
				<path class="st4" d="M279.3,324.1c0.6,0,1.1,0.1,1.6,0.3c0.5,0.2,0.9,0.5,1.3,0.8c0.4,0.3,0.6,0.8,0.8,1.2
					c0.2,0.5,0.3,1,0.3,1.6c0,0.6-0.1,1.2-0.3,1.7c-0.2,0.5-0.5,0.9-0.9,1.3c-0.4,0.4-0.9,0.6-1.4,0.8c-0.6,0.2-1.2,0.3-1.8,0.3
					c-0.9,0-1.7-0.2-2.4-0.5c-0.7-0.4-1.2-0.8-1.6-1.5l1.5-1.7c0.3,0.4,0.7,0.7,1.2,1c0.4,0.2,0.9,0.4,1.3,0.4c0.5,0,1-0.2,1.3-0.5
					c0.3-0.3,0.5-0.7,0.5-1.2c0-0.5-0.1-0.9-0.4-1.2s-0.7-0.4-1.2-0.4c-0.3,0-0.6,0.1-0.9,0.2c-0.3,0.1-0.5,0.3-0.6,0.6h-2.4
					c0,0,0-0.1,0.1-0.3c0-0.2,0.1-0.5,0.2-0.9c0.1-0.4,0.1-0.7,0.2-1.2c0.1-0.4,0.2-0.9,0.3-1.3c0.2-1.1,0.4-2.3,0.7-3.6h6v2.5h-4
					l-0.3,2.1c0.1-0.1,0.2-0.2,0.4-0.2C278.7,324.1,279,324.1,279.3,324.1z"/>
			</g>
			<g>
				<path class="st4" d="M206.1,350.8c0.6,0.1,1.1,0.3,1.6,0.6c0.5,0.3,0.9,0.6,1.2,1.1c0.3,0.4,0.6,0.9,0.8,1.5
					c0.2,0.6,0.3,1.1,0.3,1.8c0,0.9-0.2,1.6-0.5,2.3c-0.3,0.7-0.8,1.3-1.5,1.7c-0.6,0.5-1.4,0.9-2.3,1.1c-0.9,0.3-1.9,0.4-3.1,0.4
					c-2.8,0-4.9-0.8-6.5-2.4l2.3-3.1c0.5,0.5,1,0.9,1.7,1.2c0.6,0.3,1.4,0.4,2.2,0.4c2.1,0,3.1-0.8,3.1-2.3c0-0.8-0.3-1.4-0.9-1.9
					c-0.6-0.4-1.6-0.6-2.9-0.6h-0.8v-3.1h0.9c1,0,1.8-0.2,2.4-0.6c0.6-0.4,0.9-1,0.9-1.7c0-0.6-0.2-1.1-0.6-1.4
					c-0.4-0.3-1-0.5-1.7-0.5c-0.7,0-1.4,0.2-2,0.5c-0.6,0.4-1.1,0.9-1.5,1.5l-2.8-3.2c0.3-0.4,0.7-0.7,1.1-1.1
					c0.5-0.3,1-0.6,1.6-0.8c0.6-0.2,1.2-0.4,1.9-0.5c0.7-0.1,1.4-0.2,2.1-0.2c1,0,1.8,0.1,2.6,0.3c0.8,0.2,1.5,0.6,2,1
					c0.6,0.4,1,0.9,1.3,1.5c0.3,0.6,0.5,1.2,0.5,2c0,0.5-0.1,1.1-0.3,1.6c-0.2,0.5-0.4,0.9-0.7,1.3c-0.3,0.4-0.7,0.7-1.1,1
					C207,350.6,206.6,350.7,206.1,350.8z"/>
				<path class="st4" d="M218.8,360.7V357h-7.5v-3.9l8.9-11.4h3v11.4h2.4v3.9h-2.4v3.7H218.8z M215.6,353.1h3.7v-4.8L215.6,353.1z"
					/>
				<path class="st4" d="M234.6,348.5c0.9,0,1.8,0.2,2.6,0.5c0.8,0.3,1.5,0.7,2,1.3c0.6,0.5,1,1.2,1.3,2c0.3,0.8,0.5,1.6,0.5,2.5
					c0,1-0.2,1.9-0.5,2.7c-0.4,0.8-0.9,1.5-1.5,2.1c-0.6,0.6-1.4,1-2.3,1.3c-0.9,0.3-1.9,0.5-2.9,0.5c-1.4,0-2.7-0.3-3.8-0.8
					c-1.1-0.6-2-1.4-2.6-2.4l2.4-2.7c0.5,0.6,1.1,1.1,1.8,1.5c0.7,0.4,1.4,0.6,2.1,0.6c0.9,0,1.5-0.2,2-0.7c0.5-0.5,0.8-1.1,0.8-2
					c0-0.8-0.2-1.4-0.7-1.9c-0.5-0.5-1.1-0.7-1.9-0.7c-0.5,0-0.9,0.1-1.4,0.3c-0.4,0.2-0.8,0.5-1,0.9h-3.8c0,0,0-0.2,0.1-0.6
					c0.1-0.4,0.2-0.8,0.3-1.4c0.1-0.6,0.2-1.2,0.4-1.9c0.1-0.7,0.3-1.4,0.4-2.1c0.3-1.7,0.7-3.6,1.1-5.8h9.6v4h-6.5l-0.5,3.3
					c0.1-0.1,0.3-0.2,0.6-0.3C233.6,348.6,234.1,348.5,234.6,348.5z"/>
				<path class="st4" d="M250.4,345.3h-8.1v-4h15l-9.5,19.3h-4.9L250.4,345.3z"/>
				<path class="st4" d="M272.6,351.4c0,0.9-0.2,1.8-0.6,2.5c-0.4,0.7-0.9,1.4-1.5,1.9c-0.6,0.5-1.4,0.9-2.3,1.2
					c-0.9,0.3-1.8,0.4-2.8,0.4c-1,0-1.9-0.1-2.7-0.4c-0.9-0.3-1.6-0.7-2.3-1.3c-0.7-0.5-1.2-1.2-1.6-2c-0.4-0.8-0.6-1.6-0.6-2.6
					c0-0.5,0.1-1,0.2-1.4c0.2-0.4,0.4-0.8,0.6-1.2c0.3-0.4,0.5-0.7,0.9-1c0.3-0.3,0.6-0.5,1-0.7c-0.6-0.3-1.1-0.8-1.5-1.4
					c-0.4-0.6-0.6-1.3-0.6-2c0-0.9,0.2-1.7,0.6-2.4c0.4-0.7,0.9-1.3,1.6-1.7c0.6-0.5,1.3-0.8,2.1-1.1s1.5-0.4,2.3-0.4
					c0.7,0,1.5,0.1,2.3,0.4c0.8,0.2,1.5,0.6,2.1,1c0.6,0.5,1.2,1,1.6,1.7c0.4,0.7,0.6,1.5,0.6,2.4c0,0.4-0.1,0.7-0.2,1.1
					c-0.1,0.3-0.3,0.7-0.5,1c-0.2,0.3-0.4,0.6-0.7,0.8c-0.3,0.2-0.6,0.4-0.8,0.6c0.3,0.2,0.7,0.4,1,0.7c0.3,0.3,0.6,0.6,0.9,1
					c0.3,0.4,0.5,0.8,0.6,1.2C272.5,350.4,272.6,350.9,272.6,351.4z M268.2,351.1c0-0.4-0.1-0.7-0.2-1c-0.2-0.3-0.4-0.5-0.6-0.7
					c-0.3-0.2-0.5-0.4-0.9-0.5c-0.3-0.1-0.7-0.2-1-0.2c-0.8,0-1.4,0.2-1.9,0.7c-0.5,0.4-0.8,1-0.8,1.8c0,0.4,0.1,0.7,0.2,1
					c0.2,0.3,0.4,0.5,0.6,0.7c0.3,0.2,0.5,0.4,0.9,0.5c0.3,0.1,0.7,0.2,1,0.2s0.7-0.1,1-0.2c0.3-0.1,0.6-0.3,0.9-0.5
					c0.2-0.2,0.4-0.5,0.6-0.8C268.1,351.8,268.2,351.5,268.2,351.1z M263.3,343.6c0,0.3,0.1,0.6,0.2,0.8c0.1,0.2,0.3,0.4,0.5,0.6
					c0.2,0.2,0.4,0.3,0.7,0.4c0.3,0.1,0.5,0.1,0.8,0.1c0.3,0,0.5,0,0.8-0.1c0.3-0.1,0.5-0.2,0.7-0.4c0.2-0.2,0.4-0.4,0.5-0.6
					c0.1-0.2,0.2-0.5,0.2-0.8c0-0.5-0.2-1-0.6-1.3c-0.4-0.3-0.9-0.5-1.5-0.5c-0.6,0-1.1,0.2-1.5,0.5
					C263.5,342.6,263.3,343,263.3,343.6z"/>
				<path class="st4" d="M281.7,348.5c0.9,0,1.8,0.2,2.6,0.5c0.8,0.3,1.5,0.7,2,1.3c0.6,0.5,1,1.2,1.3,2c0.3,0.8,0.5,1.6,0.5,2.5
					c0,1-0.2,1.9-0.5,2.7c-0.4,0.8-0.9,1.5-1.5,2.1c-0.6,0.6-1.4,1-2.3,1.3c-0.9,0.3-1.9,0.5-2.9,0.5c-1.4,0-2.7-0.3-3.8-0.8
					c-1.1-0.6-2-1.4-2.6-2.4l2.4-2.7c0.5,0.6,1.1,1.1,1.8,1.5c0.7,0.4,1.4,0.6,2.1,0.6c0.9,0,1.5-0.2,2-0.7c0.5-0.5,0.8-1.1,0.8-2
					c0-0.8-0.2-1.4-0.7-1.9c-0.5-0.5-1.1-0.7-1.9-0.7c-0.5,0-0.9,0.1-1.4,0.3c-0.4,0.2-0.8,0.5-1,0.9h-3.8c0,0,0-0.2,0.1-0.6
					c0.1-0.4,0.2-0.8,0.3-1.4c0.1-0.6,0.2-1.2,0.4-1.9c0.1-0.7,0.3-1.4,0.4-2.1c0.3-1.7,0.7-3.6,1.1-5.8h9.6v4h-6.5l-0.5,3.3
					c0.1-0.1,0.3-0.2,0.6-0.3C280.8,348.6,281.2,348.5,281.7,348.5z"/>
				<path class="st4" d="M296.9,360.7V357h-7.5v-3.9l8.9-11.4h3v11.4h2.4v3.9h-2.4v3.7H296.9z M293.7,353.1h3.7v-4.8L293.7,353.1z"
					/>
			</g>
		</g>
		<g>
			<path class="st6" d="M139.2,377.2l15.7-5.9c0,0,3.8,8.9-3.5,9.1C144,380.6,139.2,377.2,139.2,377.2z"/>
			<g>
				<path class="st9" d="M172.1,277.5v30.7l-21.4-1.7c0,0,9.9-10.2,13.5-18.3C167.6,280.6,167.7,279.5,172.1,277.5z"/>
				<g>
					<path class="st9" d="M135.6,310.8c10.5-6.8,16.6-7.9,25.9-9.7c5.4-1,33.8-5.1,35.2,4.7c1.2,8.6-34.5,13.7-34.5,13.7
						s8.3-1.5,15-2.9c10.7-2.3,24-3.5,25.5,3.1c2.5,10.6-34.4,20.3-34.4,20.3c0.1,0.3,12.5-3.6,14.2-4.7c1.7-1.1,12.6-4.3,16.1-3
						c3.4,1.3,4.7,4.8-0.4,11.2c-4.9,6.1-19.6,20.3-33.5,25.5c-6.4,2.4-18.7,10.9-18.7,10.9s-12.5-0.8-21.8-24.8
						c-2.2-5.7-7.1-25.2-2.2-38.1L135.6,310.8z"/>
					<path class="st0" d="M181.1,300.5c-3.9,2.4-2,8.8,10,5.5"/>
				</g>
			</g>
			<g>
				<g>
					<path class="st5" d="M53.9,363.9c-10,27,8.2,79.6,56.9,57.2c19.3-8.9,34.4-15.9,41.1-27.6c4.6-8.3,2.9-17.2,2.9-17.2
						s-1.3,5.3-6.5,4.8c-19.7-1.7-33.6-39.8-23.5-68.3c1.4-3.9-19.6,1.9-46.2,19.3"/>
				</g>
			</g>
			<path class="st0" d="M105.8,331.8c0,0-5.3,48.5,28.6,62.5"/>
		</g>
		<g>
			<g>
				<g>
					<g>
						<path class="st3" d="M442.8,357.5c15.1,25.3,21.1,81.2-38.5,77.5c-23.6-1.5-42.4-4.4-54-13.1c-8.1-6.1-9.8-15-9.8-15
							s3.5,4.5,8.7,2.2c19.9-8.5,17.7-47.8,6.8-69.3c-1.9-3.8,11.9-8.1,46.5-1.2"/>
					</g>
				</g>
				<g>
					<g>
						<path class="st4" d="M404.2,435c-0.7,0-1.4-0.1-2.1-0.1c16.4-1.4,29-7.5,34.1-17.6c10.2-20,1.5-52.4-7.7-67.8l14.2,8
							C457.8,382.8,463.9,438.8,404.2,435z"/>
					</g>
				</g>
				<g>
					<g>
						<path class="st3" d="M426.1,349.7l-0.1,0L426.1,349.7C426.1,349.7,426.1,349.7,426.1,349.7z"/>
					</g>
				</g>
				<g>
					<g>
						<path class="st0" d="M441.9,353.1c15.5,32,21.9,85.7-37.7,82c-23.6-1.5-42.4-4.4-54-13.1c-8.1-6.1-9.8-15-9.8-15
							s3.5,4.5,8.7,2.2c19.9-8.5,19.8-51.6,6.8-69.3c-2.5-3.4,11.9-8.1,46.5-1.2"/>
					</g>
				</g>
				<path class="st6" d="M357,402.3l-18.7,0c0,0-0.5,9.7,7.2,7.3C353.3,407.2,357,402.3,357,402.3z"/>
				<path class="st0" d="M381.6,348.2c0,0,21.4,44.9-10.3,68.1"/>
			</g>
			<g>
				<path class="st9" d="M329.9,338.3v-17.2c0,0,21.4,6.7,28.7,17.2H329.9z"/>
				<g>
					<g>
						<g>
							<path class="st9" d="M340.5,335c-4-0.1-9.9-0.1-11-0.1c-16.2,0.6-21.7,6.3-22.1,12c-0.4,6.5,2.7,9.6,2.7,9.6
								s-15.8,8-0.6,20.1c0,0-9.4,6,0.1,17.6c9.5,11.6,41.6,16.7,48,11.4c6.4-5.2,4.7-12.8,5.5-16.3c0.8-3.5,8.9-6.6,9.5-12
								c0.6-5.4-1-11-0.8-14.2c0.1-2.4,4.1-7.2-0.1-15.7c-3-6.1-9-9.3-16.7-10.9"/>
							<path class="st0" d="M310.2,356.5c4.9,0.5,32.6,3.4,32.6,3.4"/>
						</g>
						<path class="st0" d="M309.6,376.5c4,1.8,24.2,5.9,24.2,5.9"/>
					</g>
				</g>
			</g>
		</g>
	</g>
</g>
<g id="Speech_Bubble">
	<g>
		<path class="st10" d="M349.9,62.4c-17.1-6.6-39.6-4.7-54.1,7.2c-12.8,10.6-17.1,29.9-11,45.2c7.3,18.3,28.2,28.3,47.1,25.1
			c1.3-0.2-1.1,8.6-6.6,13.5c-2.1,1.9-4.3,3.8-6.8,5.1c11.7-0.9,23-5.9,26.2-18.4c13.9-4.3,34.4-17.1,34.9-35.3
			C380.2,85.9,367.2,69,349.9,62.4z"/>
		<path class="st3" d="M349.3,115.8l-4.4,4.4c-1.1,1.1-3,1.1-4.1,0L330,109.5l-10.7,10.7c-1.1,1.1-3,1.1-4.1,0l-4.4-4.4
			c-1.1-1.1-1.1-3,0-4.1l10.7-10.7l-10.7-10.7c-1.1-1.1-1.1-3,0-4.1l4.4-4.4c1.1-1.1,3-1.1,4.1,0L330,92.4l10.7-10.7
			c1.1-1.1,3-1.1,4.1,0l4.4,4.4c1.1,1.1,1.1,3,0,4.1L338.6,101l10.7,10.7C350.4,112.8,350.4,114.7,349.3,115.8z"/>
	</g>
</g>
</svg>
