<svg xmlns="http://www.w3.org/2000/svg" version="1.1" xmlns:xlink="http://www.w3.org/1999/xlink" width="512" height="512" x="0" y="0" viewBox="0 0 24 24" style="enable-background:new 0 0 512 512" xml:space="preserve"><g><linearGradient id="b" x1="-.438" x2="23.991" y1="-.44" y2="23.989" gradientUnits="userSpaceOnUse"><stop offset="0" stop-color="#eb5ceb"/><stop offset="1" stop-color="#4e42a8"/></linearGradient><linearGradient id="a" x1="9.992" x2="19.591" y1="13.414" y2="25.302" gradientUnits="userSpaceOnUse"><stop offset="0" stop-color="#3b3280"/><stop offset=".152" stop-color="#3b3280" stop-opacity=".816"/><stop offset=".548" stop-color="#3b3280" stop-opacity=".377"/><stop offset=".842" stop-color="#3b3280" stop-opacity=".104"/><stop offset="1" stop-color="#3b3280" stop-opacity="0"/></linearGradient><linearGradient xlink:href="#a" id="c" x1="5.452" x2="19.573" y1=".294" y2="16.591"/><path fill="url(#b)" d="M23.055 12c0 .28 0 .57-.01.85 0 .16 0 .33-.01.49 0 .6-.02 1.2-.04 1.8-.03 1.14-.09 2.25-.17 3.34-.06.82-.34 1.58-.76 2.22-.56.85-1.38 1.5-2.34 1.86-.4.14-.81.23-1.25.26-.9.07-1.82.12-2.75.16-.36.01-.72.03-1.08.04-.87.03-1.75.04-2.64.04h-.32c-2.12-.01-4.17-.09-6.16-.24a4.717 4.717 0 0 1-4.34-4.34c-.16-2.09-.24-4.26-.24-6.48 0-2.18.08-4.31.23-6.36.17-2.4 2.06-4.3 4.47-4.47 2.05-.15 4.18-.23 6.36-.23 2.22 0 4.38.08 6.47.24 2.32.17 4.17 2.03 4.35 4.34.15 2.09.23 4.26.23 6.48z" opacity="1" data-original="url(#b)"/><path fill="url(#a)" d="M22.065 20.7c-.56.85-1.38 1.5-2.34 1.86-.4.14-.81.23-1.25.26-.9.07-1.82.12-2.75.16-.36.01-.72.03-1.08.04-.87.03-1.75.04-2.64.04h-.32l-3.29-3.97h-.01l-.16-.2 5.96-3 2.73-1.38.16.19z" opacity="1" data-original="url(#a)"/><path fill="url(#a)" d="M22.995 15.14c-.03 1.14-.09 2.25-.17 3.34-.06.82-.34 1.58-.76 2.22-.56.85-1.38 1.5-2.34 1.86l-3.32-4-2.22-2.67-2.72-3.27-1.2-1.45v-.01l4.81-5.51.02-.02z" opacity="1" data-original="url(#a)"/><g fill="#fff"><path d="M12 4.046a3.779 3.779 0 0 0-3.775 3.775c0 2.044 1.596 3.699 3.681 3.766a.961.961 0 0 1 .178 0l.039.002h.013a3.763 3.763 0 0 0 3.64-3.767 3.779 3.779 0 0 0-3.775-3.775zM16.037 13.708c-2.218-1.481-5.839-1.483-8.073 0h-.001c-1.005.673-1.558 1.584-1.556 2.567.001.98.554 1.887 1.557 2.554 1.113.745 2.575 1.117 4.037 1.117s2.924-.372 4.037-1.117c1.005-.673 1.558-1.585 1.556-2.567-.001-.98-.554-1.887-1.557-2.554z" fill="#ffffff" opacity="1" data-original="#ffffff"/></g></g></svg>