<svg xmlns="http://www.w3.org/2000/svg" version="1.1" xmlns:xlink="http://www.w3.org/1999/xlink" width="512" height="512" x="0" y="0" viewBox="0 0 4.233 4.233" style="enable-background:new 0 0 512 512" xml:space="preserve"><g><linearGradient id="b" x1="43.629" x2="45.518" y1="-7.749" y2="-5.86" gradientUnits="userSpaceOnUse"><stop offset="0" stop-color="#fff80a"/><stop offset="1" stop-color="#feb139"/></linearGradient><linearGradient id="a" x1="42.93" x2="46.436" y1="-8.655" y2="-4.951" gradientUnits="userSpaceOnUse"><stop offset="0" stop-color="#fffdcc"/><stop offset="1" stop-color="#fed79a"/></linearGradient><path fill="url(#a)" d="M43.702-8.624c-.504.038-.904.44-.939.945a12.338 12.338 0 0 0 0 1.758c.038.504.44.904.945.939.585.042 1.173.042 1.758 0 .504-.038.905-.44.94-.945.04-.586.04-1.174-.001-1.76a1.016 1.016 0 0 0-.945-.937 12.33 12.33 0 0 0-1.758 0z" paint-order="stroke markers fill" transform="translate(-42.467 8.92)" opacity="1" data-original="url(#a)"/><path fill="url(#b)" d="M44.582-7.748a.393.393 0 1 0 0 .787.393.393 0 0 0 0-.787zm-.034.945a1.624 1.624 0 0 0-.635.144.079.079 0 0 0-.004.002.507.507 0 0 0-.269.486.316.316 0 0 0 .313.313h1.26a.317.317 0 0 0 .316-.316.557.557 0 0 0-.338-.512.079.079 0 0 0-.002 0 1.629 1.629 0 0 0-.64-.117z" paint-order="fill markers stroke" transform="translate(-42.467 8.92)" opacity="1" data-original="url(#b)"/></g></svg>