<svg xmlns="http://www.w3.org/2000/svg" version="1.1" xmlns:xlink="http://www.w3.org/1999/xlink" width="512" height="512" x="0" y="0" viewBox="0 0 100 100" style="enable-background:new 0 0 512 512" xml:space="preserve"><g><linearGradient id="a"><stop offset=".179" stop-color="#5984c3"/><stop offset=".392" stop-color="#496db3"/><stop offset=".824" stop-color="#273b94"/></linearGradient><linearGradient xlink:href="#a" id="b" x1="-1.573" x2="101.798" y1="-1.517" y2="101.742" gradientUnits="userSpaceOnUse"/><linearGradient xlink:href="#a" id="c" x1="2.993" x2="106.361" y1="-6.087" y2="97.168" gradientUnits="userSpaceOnUse"/><path fill="url(#b)" d="M50 2.5C23.81 2.5 2.5 23.81 2.5 50S23.81 97.5 50 97.5 97.5 76.19 97.5 50 76.19 2.5 50 2.5zm28.83 76.11c-3.64-7.49-11.32-12.66-20.21-12.66H41.37c-8.89 0-16.56 5.17-20.21 12.66C13.87 71.26 9.36 61.15 9.36 50 9.36 27.59 27.59 9.36 50 9.36S90.64 27.59 90.64 50c0 11.15-4.51 21.26-11.81 28.61z" opacity="1" data-original="url(#b)"/><circle cx="50" cy="40.87" r="18.26" fill="url(#c)" opacity="1" data-original="url(#c)"/></g></svg>