<svg width="36" height="36" viewBox="0 0 36 36" fill="none" xmlns="http://www.w3.org/2000/svg">
<rect width="36" height="36" rx="18" fill="#021D3E"/>
<path d="M3.18334 18.155L3.65161 18.0051L3.18334 17.7616L3.48772 17.3636L2.98668 17.4338L3.05223 16.9656L2.65889 17.2278L2.45286 16.7596L2.25151 17.2278L1.85816 16.9656L1.92372 17.4338L1.42268 17.3636L1.72705 17.7616L1.25879 18.0051L1.72705 18.155L1.46014 18.6232L1.9284 18.5202L1.86285 19.0306L2.26555 18.7169L2.45754 19.2413L2.65421 18.7169L3.05691 19.0306L2.99136 18.5202L3.45962 18.6232L3.18334 18.155ZM2.43413 18.3329C2.34428 18.3317 2.25853 18.2951 2.19544 18.2312C2.13234 18.1672 2.09697 18.0809 2.09698 17.9911C2.09698 17.9017 2.1325 17.8159 2.19573 17.7527C2.25895 17.6895 2.34471 17.6539 2.43413 17.6539C2.52398 17.6539 2.61022 17.6893 2.6742 17.7524C2.73817 17.8155 2.77472 17.9012 2.77596 17.9911C2.77596 18.0817 2.73994 18.1687 2.67584 18.2328C2.61173 18.2969 2.52479 18.3329 2.43413 18.3329Z" fill="white"/>
<path d="M34.448 18.1548L34.9163 18.005L34.448 17.7615L34.7524 17.3635L34.2514 17.429L34.3169 16.9608L33.9189 17.223L33.7175 16.7547L33.5162 17.223L33.1229 16.9608L33.1884 17.429L32.6827 17.3635L32.9871 17.7615L32.5188 18.005L32.9871 18.1548L32.7201 18.6231L33.1884 18.5201L33.1229 19.0305L33.5209 18.7167L33.7175 19.2412L33.9142 18.7167L34.3122 19.0305L34.2514 18.5201L34.7196 18.6231L34.448 18.1548ZM33.6988 18.3328C33.609 18.3315 33.5232 18.295 33.4601 18.231C33.397 18.167 33.3617 18.0808 33.3617 17.9909C33.3617 17.9015 33.3972 17.8158 33.4604 17.7525C33.5236 17.6893 33.6094 17.6538 33.6988 17.6538C33.7882 17.6538 33.874 17.6893 33.9372 17.7525C34.0004 17.8158 34.036 17.9015 34.036 17.9909C34.0372 18.0362 34.0294 18.0813 34.0131 18.1236C33.9968 18.1658 33.9722 18.2044 33.9409 18.2371C33.9095 18.2697 33.8719 18.2959 33.8304 18.3139C33.7888 18.3319 33.7441 18.3415 33.6988 18.3421V18.3328Z" fill="white"/>
<path d="M18.0011 36C13.8367 36.0003 9.80105 34.5565 6.58177 31.9149C3.36248 29.2732 1.15876 25.597 0.346094 21.5126C-0.466574 17.4283 0.16209 13.1885 2.12497 9.51573C4.08786 5.84294 7.26351 2.96439 11.1108 1.37054C14.9582 -0.223317 19.2391 -0.433848 23.2243 0.774815C27.2094 1.98348 30.6522 4.53655 32.966 7.99902C35.2797 11.4615 36.3214 15.6191 35.9134 19.7635C35.5054 23.9079 33.673 27.7826 30.7285 30.7274C27.353 34.1031 22.7749 35.9997 18.0011 36ZM18.0011 0.828829C14.6013 0.828829 11.2778 1.837 8.45092 3.72585C5.62406 5.6147 3.42079 8.2994 2.11973 11.4404C0.818669 14.5815 0.478251 18.0378 1.14153 21.3723C1.8048 24.7068 3.44198 27.7698 5.84603 30.1738C8.25008 32.5779 11.313 34.2151 14.6475 34.8783C17.982 35.5416 21.4384 35.2012 24.5794 33.9001C27.7204 32.5991 30.4051 30.3958 32.294 27.5689C34.1828 24.7421 35.191 21.4186 35.191 18.0187C35.1898 13.4601 33.3783 9.08847 30.1548 5.86501C26.9314 2.64154 22.5598 0.83007 18.0011 0.828829Z" fill="white"/>
<path d="M17.9996 3.76947C15.1841 3.76947 12.4319 4.60435 10.0909 6.16853C7.74998 7.73271 5.92542 9.95594 4.848 12.5571C3.77057 15.1582 3.48867 18.0204 4.03794 20.7818C4.5872 23.5431 5.94297 26.0796 7.93379 28.0704C9.92461 30.0612 12.4611 31.417 15.2224 31.9663C17.9838 32.5155 20.846 32.2336 23.4471 31.1562C26.0483 30.0788 28.2715 28.2542 29.8357 25.9133C31.3998 23.5723 32.2347 20.8201 32.2347 18.0046C32.2322 14.23 30.7317 10.6107 28.0626 7.94159C25.3935 5.27252 21.7742 3.77195 17.9996 3.76947ZM31.8133 18C31.8151 20.7325 31.0065 23.4041 29.4898 25.677C27.9731 27.9499 25.8163 29.7219 23.2923 30.7689C20.7684 31.8158 17.9906 32.0907 15.3104 31.5588C12.6302 31.0268 10.1679 29.7119 8.23511 27.7804C6.30229 25.8489 4.98573 23.3876 4.45196 20.7077C3.9182 18.0278 4.19121 15.2499 5.23646 12.7252C6.28171 10.2005 8.05224 8.04256 10.3241 6.52427C12.596 5.00599 15.2671 4.19559 17.9996 4.19559C21.6612 4.19806 25.1724 5.6528 27.7629 8.24068C30.3535 10.8286 31.8118 14.3383 31.818 18H31.8133Z" fill="white"/>
<path d="M13.0752 2.23405L13.4872 2.40262L13.7401 2.0046L13.3186 1.82666L13.0892 2.19659C12.9581 2.12635 12.8082 2.0842 12.6771 2.02333C12.5928 2.15913 12.5086 2.29024 12.429 2.42604L12.8363 2.58993C12.9206 2.46818 13.0002 2.34643 13.0752 2.23405Z" fill="white"/>
<path d="M15.838 2.65447L15.0747 2.13938L14.6486 2.60764L14.9342 2.84177L15.159 2.61701C15.2854 2.68725 15.4119 2.76685 15.5336 2.85114C15.5664 2.87923 15.6132 2.9167 15.6039 2.9682C15.5945 3.01971 15.5243 3.04313 15.4727 3.05249L14.3957 3.19297L14.1991 1.76477L13.8245 2.12533C13.9025 2.68413 13.9774 3.24136 14.0492 3.79703L14.8827 3.68933C15.1861 3.66033 15.4857 3.60071 15.7771 3.51139C15.8717 3.47867 15.952 3.41404 16.0041 3.32859C16.0562 3.24314 16.077 3.14221 16.0628 3.04313C16.0558 2.96591 16.032 2.89114 15.9932 2.82402C15.9544 2.7569 15.9014 2.69904 15.838 2.65447Z" fill="white"/>
<path d="M23.7049 2.40687L23.4099 2.0744L23.0072 2.3179C23.0962 2.42092 23.1898 2.52394 23.2788 2.63164L22.8761 2.79085C22.8386 2.95005 22.8012 3.11395 22.7544 3.25911C22.7459 3.28074 22.7298 3.29846 22.709 3.30885C22.6882 3.31923 22.6643 3.32153 22.642 3.3153L22.2159 3.21696C22.2861 2.93132 22.3517 2.64568 22.4266 2.35536L21.9583 2.55203C21.9209 2.71124 21.8834 2.87513 21.8412 3.02029C21.8338 3.0418 21.8187 3.05984 21.7989 3.07105C21.7791 3.08225 21.7558 3.08585 21.7336 3.08117L21.3028 2.97815L21.4339 2.1306C21.284 2.2102 21.1342 2.28981 20.9656 2.36473C20.9375 2.52862 20.9188 2.69251 20.886 2.83299C20.8789 2.85435 20.8649 2.87278 20.8463 2.88546C20.8277 2.89815 20.8055 2.90439 20.783 2.90323L20.3147 2.82831C20.3147 2.54267 20.3428 2.25703 20.3615 1.97139L19.9307 2.25703C19.9307 2.4256 19.9307 2.58949 19.9026 2.75807C19.8993 2.7804 19.8879 2.80075 19.8707 2.81538C19.8535 2.83001 19.8316 2.83793 19.809 2.83767C19.7107 2.83767 19.617 2.83767 19.5234 2.83767C19.511 2.75846 19.484 2.68224 19.4438 2.61291C19.348 2.46003 19.2259 2.32528 19.0832 2.21488L19.7669 1.69511L19.2564 1.64829L18.4698 2.18679C18.629 2.34131 18.7929 2.49116 18.938 2.65505C18.9755 2.69251 19.0223 2.73465 19.0036 2.79553C18.9816 2.82455 18.9521 2.84692 18.9182 2.86015C18.8843 2.87338 18.8474 2.87694 18.8116 2.87045L18.2778 2.81426C18.2654 2.81255 18.2535 2.80838 18.2428 2.80201C18.2321 2.79564 18.2227 2.78719 18.2153 2.77716C18.2079 2.76713 18.2026 2.75571 18.1996 2.74359C18.1967 2.73146 18.1962 2.71888 18.1982 2.70656C18.2403 2.2383 18.2825 1.77003 18.3293 1.33923C18.1841 1.42352 18.0296 1.51249 17.861 1.60614L17.7346 2.95474C17.7307 3.01597 17.7429 3.07716 17.77 3.13221C17.7971 3.18725 17.8382 3.23424 17.8891 3.26847C17.9836 3.30968 18.0857 3.33043 18.1888 3.32935C18.4229 3.32935 18.6571 3.38086 18.9006 3.37617C19.0211 3.38044 19.1405 3.35299 19.2471 3.29657V3.37617C19.4812 3.37617 19.7153 3.40427 19.9588 3.40895C20.0046 3.40823 20.0496 3.39685 20.0903 3.37572C20.1309 3.35458 20.1661 3.32428 20.193 3.2872V3.3949C20.4271 3.42768 20.6612 3.47451 20.8954 3.5026C20.9353 3.50718 20.9758 3.50284 21.0138 3.48988C21.0519 3.47693 21.0866 3.45568 21.1154 3.42768C21.1197 3.45247 21.1197 3.47781 21.1154 3.5026C21.3496 3.5588 21.5837 3.61967 21.8085 3.6665C21.8634 3.67569 21.9199 3.66913 21.9712 3.64759C22.0226 3.62604 22.0668 3.59039 22.0988 3.54475C22.0988 3.6103 22.066 3.67118 22.052 3.73205C22.2814 3.78824 22.5202 3.8538 22.7403 3.90531C22.8204 3.91603 22.9016 3.89722 22.9688 3.85241C23.036 3.8076 23.0847 3.73985 23.1056 3.66181C23.1898 3.31998 23.2788 2.98283 23.3631 2.641C23.4719 2.55566 23.5861 2.47746 23.7049 2.40687Z" fill="white"/>
<path d="M21.0509 1.76505C21.1492 1.87743 21.2522 1.98045 21.3506 2.09283L21.7205 1.86338C21.8141 1.98045 21.9172 2.08346 22.0155 2.19585L22.4229 1.9383L22.1185 1.61052L21.7579 1.84465C21.6596 1.73227 21.5566 1.62457 21.4536 1.51218L21.093 1.74632C20.9947 1.63393 20.887 1.52623 20.7886 1.41385L20.3906 1.66671L20.695 1.99449C20.8121 1.91021 20.9291 1.83528 21.0509 1.76505Z" fill="white"/>
<path d="M15.3728 1.66233L15.0076 1.40479L14.6704 1.72789L15.031 1.99011L15.3728 1.66233Z" fill="white"/>
<path d="M23.8386 2.60896C23.6325 3.13342 23.4312 3.65787 23.2205 4.17764L23.6091 4.32748L24.3396 2.45444L23.8386 2.60896Z" fill="white"/>
<path d="M25.2826 4.07359L24.6926 2.92166L24.4819 3.38992C24.613 3.61001 24.7488 3.83009 24.8658 4.05954C24.8893 4.10636 24.922 4.16724 24.8658 4.21406C24.8096 4.26089 24.7581 4.21406 24.7066 4.21406L24.2009 3.9893C24.1307 4.14383 24.0604 4.30303 23.9949 4.45756C24.2593 4.58814 24.5394 4.68414 24.8284 4.7432C24.9198 4.75413 25.0124 4.73548 25.0924 4.68997C25.1725 4.64446 25.2358 4.5745 25.2732 4.49034C25.3069 4.42631 25.3252 4.35537 25.3268 4.28306C25.3285 4.21076 25.3133 4.13906 25.2826 4.07359Z" fill="white"/>
<path d="M17.4353 2.3132L16.864 1.8028L16.2834 2.43027C16.2073 2.55178 16.1727 2.69478 16.1851 2.83765C16.188 2.93398 16.2207 3.02705 16.2785 3.10415C16.3363 3.18125 16.4165 3.23863 16.5082 3.26846C16.7875 3.3344 17.0797 3.31979 17.351 3.22631C17.4301 3.19317 17.4985 3.13897 17.5489 3.06961C17.5993 3.00025 17.6296 2.9184 17.6367 2.83297C17.6481 2.73648 17.6358 2.63865 17.6007 2.54803C17.5656 2.45742 17.5088 2.37679 17.4353 2.3132ZM17.1497 2.72995C17.0566 2.75495 16.9604 2.766 16.864 2.76273C16.7891 2.76273 16.6955 2.79083 16.6346 2.73464C16.6174 2.71435 16.608 2.68863 16.608 2.66206C16.608 2.63548 16.6174 2.60977 16.6346 2.58948C16.7095 2.50051 16.7938 2.41622 16.8781 2.33193C16.9799 2.40851 17.0754 2.49307 17.1637 2.58479C17.1802 2.60358 17.1893 2.62771 17.1893 2.65269C17.1893 2.67767 17.1802 2.7018 17.1637 2.72059L17.1497 2.72995Z" fill="white"/>
<path d="M13.5241 2.50043C13.4257 2.64559 13.3227 2.7767 13.2197 2.91718C13.2712 3.07171 13.3227 3.22623 13.3602 3.38544C13.3637 3.39743 13.3649 3.41001 13.3635 3.42244C13.3621 3.43487 13.3582 3.44689 13.3521 3.45781C13.346 3.46872 13.3378 3.47829 13.3279 3.48597C13.318 3.49365 13.3067 3.49927 13.2946 3.50251C13.1542 3.54933 13.009 3.59148 12.8685 3.64767C12.8305 3.55798 12.767 3.48144 12.6859 3.42759L11.843 3.00147C11.7119 3.29179 11.5667 3.5868 11.4263 3.8818C11.3654 3.9895 11.3186 4.1253 11.1875 4.16744C11.0563 4.20958 10.8409 4.27514 10.6724 4.33133C10.7192 4.49522 10.7707 4.65912 10.8222 4.79959C11.0758 4.72811 11.322 4.63245 11.5574 4.51395C11.6618 4.45348 11.7427 4.3594 11.7868 4.24705C11.7868 4.32665 11.8337 4.40157 11.8571 4.48118C12.1597 4.40512 12.4532 4.2968 12.7327 4.15807C12.7799 4.13028 12.8204 4.09233 12.8512 4.04698C12.882 4.00163 12.9023 3.95001 12.9107 3.89585C12.9341 3.97545 12.9575 4.05037 12.9856 4.12998L13.6552 3.91458C13.7355 3.88398 13.8008 3.8235 13.8374 3.7458C13.8741 3.66811 13.8793 3.57924 13.8519 3.49783L13.5241 2.50043ZM12.3768 3.84902C12.2731 3.89037 12.1667 3.92478 12.0584 3.95204C12.0336 3.95777 12.0075 3.95365 11.9857 3.94055C11.9639 3.92745 11.948 3.90639 11.9414 3.8818V3.83497C11.9809 3.72052 12.0295 3.60935 12.0865 3.50251C12.1897 3.55784 12.2897 3.61881 12.3862 3.68513C12.4071 3.70018 12.4213 3.72285 12.4257 3.74824C12.4301 3.77364 12.4243 3.79974 12.4096 3.82093C12.4025 3.83398 12.3908 3.84398 12.3768 3.84902Z" fill="white"/>
<path d="M18.8076 1.62006C18.5968 1.7418 18.6109 1.76053 18.4002 1.88228L18.3721 2.15856L19.1588 1.66688L18.8076 1.62006Z" fill="white"/>
<path d="M10.0769 30.8444L9.58518 31.0036L9.78653 30.6664L9.46343 30.4745L8.85938 31.4859L9.18247 31.6826L9.37446 31.3595L9.50557 31.322L9.51026 31.8746L9.89891 32.1087L9.87082 31.2237L10.4561 31.0692L10.0769 30.8444Z" fill="white"/>
<path d="M11.2007 31.4247L11.0228 31.7853L10.7091 31.6308L10.8823 31.2702L10.5452 31.1063L10.0254 32.1646L10.3672 32.3332L10.5639 31.9211L10.8823 32.0756L10.681 32.483L11.0228 32.6516L11.5379 31.5933L11.2007 31.4247Z" fill="white"/>
<path d="M11.1592 32.7131L11.5057 32.8582L11.6087 32.7318L11.9552 32.8723V33.0315L12.3064 33.1767L12.3579 31.9264L12.0021 31.7859L11.1592 32.7131ZM11.9833 32.6101L11.7632 32.5211L12.0255 32.1886L11.9833 32.6101Z" fill="white"/>
<path d="M13.5761 32.6752L13.6744 32.3848L12.6723 32.0477L12.574 32.3427L12.8971 32.4504L12.6208 33.2745L12.9814 33.3963L13.253 32.5675L13.5761 32.6752Z" fill="white"/>
<path d="M13.9976 32.4647L13.2859 33.4995L13.6465 33.5979L13.7307 33.4527L14.0913 33.5464V33.7103L14.4565 33.8086L14.3535 32.563L13.9976 32.4647ZM14.1007 33.2982L13.8712 33.2326L14.0913 32.8721L14.1007 33.2982Z" fill="white"/>
<path d="M15.4279 33.3914L15.3998 33.4523L15.3623 33.5506V33.3774L15.3061 32.7686L14.8379 32.689L14.6318 33.8503L14.969 33.9065L15.0673 33.3493C15.0673 33.3493 15.0673 33.2978 15.0673 33.2603C15.0673 33.2228 15.0673 33.1807 15.0907 33.1339V33.3586L15.1329 33.9393L15.3951 33.9861L15.6386 33.4429L15.7182 33.2556C15.7204 33.2899 15.7204 33.3243 15.7182 33.3586C15.7204 33.3914 15.7204 33.4242 15.7182 33.457L15.6152 34.0283L15.9523 34.0891L16.1584 32.9278L15.6901 32.8482L15.4279 33.3914Z" fill="white"/>
<path d="M17.5328 33.7522C17.5359 33.8047 17.5192 33.8565 17.486 33.8973C17.4663 33.9126 17.4435 33.9234 17.4193 33.929C17.3951 33.9347 17.3699 33.9351 17.3455 33.9301C17.3194 33.9324 17.2931 33.9294 17.2682 33.9214C17.2433 33.9133 17.2202 33.9004 17.2003 33.8833C17.1716 33.8406 17.1584 33.7894 17.1629 33.7381L17.2003 33.0123H16.8257L16.7883 33.7662C16.7789 33.8292 16.7856 33.8936 16.8077 33.9533C16.8298 34.0131 16.8666 34.0663 16.9147 34.1081C17.0354 34.1911 17.1768 34.2391 17.3231 34.2465C17.4695 34.2539 17.615 34.2206 17.7435 34.1502C17.7938 34.1107 17.8343 34.0602 17.8619 34.0025C17.8895 33.9449 17.9035 33.8817 17.9027 33.8177L17.9402 33.0638H17.5609L17.5328 33.7522Z" fill="white"/>
<path d="M18.9061 33.5742V33.6632C18.8986 33.686 18.8986 33.7106 18.9061 33.7334C18.9061 33.696 18.878 33.6632 18.864 33.6304L18.8265 33.5696L18.4706 33.0311H18.1147L18.1616 34.2064H18.5175V33.6538V33.5602C18.5246 33.5389 18.5246 33.5159 18.5175 33.4946C18.5298 33.5281 18.5439 33.5609 18.5596 33.593C18.5693 33.6163 18.5819 33.6383 18.5971 33.6585L18.9483 34.1923H19.3088L19.262 33.0123H18.9014L18.9061 33.5742Z" fill="white"/>
<path d="M19.8291 32.9411L19.4473 32.9817L19.572 34.1551L19.9539 34.1145L19.8291 32.9411Z" fill="white"/>
<path d="M20.6367 33.5837L20.3136 32.8673L19.9343 32.9328L20.5197 34.0286L20.8943 33.9677L21.0862 32.7362L20.721 32.8017L20.6367 33.5837Z" fill="white"/>
<path d="M21.766 33.4861L21.7192 33.3082L22.1781 33.1911L22.1125 32.9335L21.6537 33.0506L21.6162 32.8961L22.1594 32.7556L22.0938 32.484L21.176 32.7135L21.4663 33.856L22.4029 33.6219L22.3326 33.3409L21.766 33.4861Z" fill="white"/>
<path d="M23.6199 33.0969L23.5591 32.9471C23.5414 32.8849 23.5055 32.8294 23.456 32.7879C23.408 32.7599 23.3516 32.7499 23.2968 32.7598C23.3433 32.7183 23.3773 32.6648 23.3952 32.6052C23.4139 32.5458 23.4139 32.4821 23.3952 32.4226C23.3804 32.3662 23.3495 32.3154 23.3062 32.2763C23.263 32.2372 23.2093 32.2116 23.1517 32.2025C23.0219 32.1803 22.8884 32.1966 22.7677 32.2494L22.2339 32.432L22.6132 33.5465L22.9691 33.4247L22.8379 33.0407L22.9925 32.9892C23.0123 32.98 23.0338 32.9752 23.0557 32.9752C23.0775 32.9752 23.0991 32.98 23.1189 32.9892C23.157 33.0161 23.1837 33.0561 23.1938 33.1016L23.2313 33.2093C23.2313 33.2093 23.2313 33.2374 23.2547 33.2561L23.2922 33.3217L23.6527 33.1999V33.1578C23.6527 33.1578 23.6199 33.1391 23.6199 33.0969ZM23.0393 32.6708C23.0074 32.7001 22.9688 32.721 22.9269 32.7317L22.763 32.7879L22.6928 32.5772L22.8473 32.5256C22.8915 32.5116 22.9389 32.5116 22.9831 32.5256C22.998 32.5318 23.0113 32.5413 23.0219 32.5535C23.0325 32.5657 23.0401 32.5802 23.044 32.5959C23.0515 32.6206 23.0498 32.6472 23.0393 32.6708Z" fill="white"/>
<path d="M24.5558 32.2545C24.5121 32.2205 24.4606 32.198 24.4059 32.1889C24.3112 32.1748 24.215 32.1748 24.1203 32.1889H24.0501C23.9408 32.2076 23.8799 32.1983 23.8674 32.1608C23.8606 32.1513 23.8569 32.1398 23.8569 32.128C23.8569 32.1163 23.8606 32.1048 23.8674 32.0953C23.8855 32.0688 23.9119 32.049 23.9424 32.0391C23.9773 32.0276 24.0151 32.0276 24.0501 32.0391C24.0649 32.0417 24.079 32.0477 24.0912 32.0566C24.1034 32.0656 24.1133 32.0772 24.1203 32.0906L24.4528 31.9501C24.4285 31.9024 24.3941 31.8605 24.3521 31.8274C24.3101 31.7942 24.2613 31.7706 24.2093 31.7581C24.0852 31.7348 23.9568 31.7529 23.844 31.8096C23.7221 31.8546 23.6184 31.9385 23.549 32.0484C23.5236 32.0943 23.5103 32.1459 23.5103 32.1983C23.5103 32.2507 23.5236 32.3023 23.549 32.3481C23.5692 32.3988 23.6013 32.4437 23.6427 32.4792C23.6844 32.5117 23.7321 32.5356 23.7831 32.5495H23.9096C23.9819 32.5447 24.0538 32.5353 24.125 32.5214H24.1718C24.2795 32.5214 24.3451 32.5214 24.3591 32.5542C24.3671 32.5641 24.3714 32.5765 24.3714 32.5893C24.3714 32.602 24.3671 32.6144 24.3591 32.6244C24.338 32.654 24.3087 32.6767 24.2748 32.69C24.2354 32.7039 24.1925 32.7039 24.1531 32.69C24.1348 32.6867 24.1174 32.6796 24.102 32.6691C24.0867 32.6586 24.0738 32.645 24.0641 32.6291L23.727 32.7742C23.7524 32.8252 23.7886 32.87 23.8331 32.9056C23.8776 32.9411 23.9292 32.9666 23.9845 32.9803C24.1141 33.0075 24.2492 32.9911 24.3685 32.9335C24.4997 32.8868 24.6118 32.7979 24.6869 32.6806C24.7124 32.6297 24.7257 32.5736 24.7257 32.5167C24.7257 32.4598 24.7124 32.4037 24.6869 32.3528C24.6522 32.3095 24.6071 32.2756 24.5558 32.2545Z" fill="white"/>
<path d="M24.7865 31.3989L24.4429 31.5703L24.9696 32.6263L25.3132 32.4549L24.7865 31.3989Z" fill="white"/>
<path d="M26.8829 31.0269L26.8314 30.1747L26.4895 30.3948L26.5364 30.8443L26.1477 30.6195L25.8199 30.8303L24.8975 31.35L25.052 31.6216L25.347 31.453L25.7731 32.2116L26.1056 32.0243L25.6795 31.2657L25.9745 31.1018L25.8434 30.8724L26.5645 31.233L26.8033 31.5982L27.1217 31.3922L26.8829 31.0269Z" fill="white"/>
<path d="M15.5493 8.3775C15.5493 8.3775 17.3896 9.97896 18.0218 11.9316C18.6539 9.97896 20.4989 8.3775 20.4989 8.3775C20.4058 7.52126 20.4935 6.65503 20.7564 5.83484C19.7589 5.76979 18.805 5.40226 18.0218 4.78125C17.2379 5.40122 16.2843 5.76862 15.2871 5.83484C15.5535 6.65428 15.6429 7.52094 15.5493 8.3775Z" fill="white"/>
<path d="M21.0151 12.6709C22.5369 11.2988 24.9345 10.8353 24.9345 10.8353C25.2859 10.0562 25.7963 9.35923 26.4329 8.78896C25.6029 8.23159 24.9626 7.43446 24.5973 6.50385C23.606 6.64304 22.5958 6.47984 21.6988 6.03558C21.5229 6.88197 21.1668 7.68053 20.6545 8.37689C20.6545 8.37689 21.4412 10.662 21.0151 12.6709Z" fill="white"/>
<path d="M23.0991 14.8205C25.1126 14.4412 27.4024 15.2887 27.4024 15.2887C28.1052 14.7993 28.9028 14.4627 29.7438 14.3007C29.3244 13.3926 29.189 12.3791 29.3551 11.3928C28.4368 11.0091 27.6563 10.3561 27.1168 9.51974C26.5266 10.1357 25.8134 10.6207 25.0237 10.9433C25.0237 10.9433 24.5086 13.3267 23.0991 14.8205Z" fill="white"/>
<path d="M30.0269 15.1573C29.2067 15.4201 28.3405 15.5079 27.4843 15.4148C27.4843 15.4148 25.8781 17.2504 23.9302 17.8826C25.8781 18.5194 27.4796 20.3597 27.4796 20.3597C28.3349 20.2695 29.1997 20.3604 30.0176 20.6266C30.084 19.6286 30.4532 18.6746 31.0758 17.8919C30.4576 17.1075 30.0918 16.154 30.0269 15.1573Z" fill="white"/>
<path d="M27.4795 20.5327C27.4795 20.5327 25.1382 21.2679 23.1621 20.7856C24.492 22.3449 24.8947 24.7518 24.8947 24.7518C25.6734 25.1177 26.3648 25.6462 26.9222 26.3017C27.5037 25.4844 28.3204 24.8637 29.2636 24.5223C29.1433 23.5294 29.3279 22.5234 29.7927 21.6378C28.9519 21.4378 28.1634 21.0611 27.4795 20.5327Z" fill="white"/>
<path d="M24.8124 24.8596C24.8124 24.8596 22.4009 24.485 20.8228 23.1786C21.3333 25.164 20.6309 27.5006 20.6309 27.5006C21.1691 28.173 21.5585 28.9518 21.7734 29.7858C22.6518 29.3086 23.6544 29.1093 24.6485 29.2145C24.9799 28.275 25.589 27.4584 26.3952 26.8732C25.7326 26.3201 25.1934 25.6341 24.8124 24.8596Z" fill="white"/>
<path d="M20.4756 27.482C20.4756 27.482 18.5417 25.9976 17.7925 24.0871C17.2774 26.0726 15.5401 27.7817 15.5401 27.7817C15.6836 28.6308 15.6453 29.5006 15.4277 30.3337C16.4332 30.3361 17.4138 30.6466 18.2373 31.2234C18.9829 30.5562 19.9138 30.1316 20.9064 30.006C20.5842 29.2051 20.4373 28.3444 20.4756 27.482Z" fill="white"/>
<path d="M15.0345 23.4135C13.522 24.8183 11.1292 25.2866 11.1292 25.2866C10.7862 26.0764 10.2804 26.7848 9.64478 27.3656C10.4867 27.9112 11.1406 28.7024 11.5178 29.632C12.5053 29.4777 13.5164 29.628 14.4164 30.0628C14.5879 29.2192 14.9358 28.4213 15.4372 27.7215C15.4372 27.7215 14.6224 25.4224 15.0345 23.4135Z" fill="white"/>
<path d="M12.8503 21.1419C10.8508 21.5587 8.5376 20.7533 8.5376 20.7533C7.83933 21.2603 7.04125 21.613 6.19629 21.7881C6.64139 22.6849 6.80463 23.6954 6.66455 24.6867C7.59385 25.0644 8.38489 25.7182 8.93093 26.5597C9.51071 25.9217 10.2194 25.4142 11.01 25.0706C11.01 25.0706 11.4783 22.6591 12.8503 21.1419Z" fill="white"/>
<path d="M8.51673 20.5284C8.51673 20.5284 10.1322 18.6975 12.0849 18.0794C10.1416 17.4332 8.54951 15.5836 8.54951 15.5836C7.69284 15.6675 6.82811 15.5701 6.01153 15.2979C5.93951 16.2942 5.56544 17.2449 4.93921 18.0232C5.5557 18.8107 5.91532 19.7686 5.96938 20.7672C6.79249 20.5105 7.66025 20.4292 8.51673 20.5284Z" fill="white"/>
<path d="M8.60669 15.4579C8.60669 15.4579 10.9059 14.6431 12.9147 15.0552C11.5099 13.5427 11.0416 11.1498 11.0416 11.1498C10.249 10.8116 9.53841 10.307 8.95788 9.67014C8.4133 10.5111 7.62391 11.1648 6.69618 11.5432C6.85053 12.5307 6.70026 13.5418 6.26538 14.4417C7.10885 14.6112 7.90683 14.9575 8.60669 15.4579Z" fill="white"/>
<path d="M11.0904 10.9761C11.0904 10.9761 13.4832 11.4443 15.0004 12.821C14.5696 10.8215 15.3656 8.50363 15.3656 8.50363C14.857 7.80577 14.5026 7.00766 14.3261 6.16232C13.4316 6.60932 12.422 6.77269 11.4322 6.63059C11.0586 7.56189 10.4101 8.35732 9.57324 8.91102C10.2188 9.48479 10.7358 10.1885 11.0904 10.9761Z" fill="white"/>
<path d="M20.7515 18.4369L22.367 17.889L20.686 17.0274L21.7817 15.5946L19.9789 15.838L20.213 14.1898L18.7942 15.131L18.0684 13.389L17.3473 15.131L15.9284 14.1898L16.1626 15.838L14.3597 15.5946L15.4555 17.0274L13.7744 17.889L15.3899 18.4369L14.43 20.118L16.1626 19.7527L15.9284 21.5789L17.3613 20.4598L18.0684 22.3282L18.7801 20.4598L20.213 21.5789L19.9789 19.7527L21.7114 20.118L20.7515 18.4369Z" fill="white"/>
</svg>
