<svg id="Layer_2" data-name="Layer 2" xmlns="http://www.w3.org/2000/svg" viewBox="0 0 898.12 466.87"><defs><style>.cls-1{fill:#0369cd;}</style></defs><title>pod</title><path class="cls-1" d="M125.24,825.3H227.57l-1.19-209.67V591.21a38.7,38.7,0,1,1,15.48,31V730.32A140.51,140.51,0,1,0,125.24,591.87V825.3Z" transform="translate(-125.24 -358.43)"/><path class="cls-1" d="M1023.36,358.43H921l1.19,209.67v24.42a38.72,38.72,0,1,1-15.49-31V453.42a140.5,140.5,0,1,0,116.63,138.45V358.43Z" transform="translate(-125.24 -358.43)"/><path class="cls-1" d="M571.24,450.94a143,143,0,1,0,143,143A143,143,0,0,0,571.24,450.94Zm0,184.37a41.41,41.41,0,1,1,41.41-41.41A41.42,41.42,0,0,1,571.24,635.31Z" transform="translate(-125.24 -358.43)"/></svg>